<svg xmlns="http://www.w3.org/2000/svg" width="262.53" height="221.485" viewBox="0 0 262.53 221.485">
  <g id="undraw_save_to_bookmarks_y708" transform="translate(0.005)">
    <path id="Path_1859" data-name="Path 1859" d="M926.607,547.62c-.055,1.36-1.43,29.431-20.287,44.768q-1.183.962-2.458,1.854l-.641-.626h.372a1.659,1.659,0,0,0,1.658-1.658V536.627c.394-2.123.766-4.209,1.106-6.239,1.839-11.037,2.69-20.361,1.312-24.234.6,1.5,12.582,32.1,6.073,63.28C920.188,560.607,926.305,551.342,926.607,547.62Z" transform="translate(-664.082 -375.452)" fill="#d42917"/>
    <path id="Path_1860" data-name="Path 1860" d="M486.847,148.341H259.784a2.767,2.767,0,0,0-2.764,2.764V361.534a2.765,2.765,0,0,0,2.764,2.764H486.847a2.758,2.758,0,0,0,2.727-2.333,2.374,2.374,0,0,0,.037-.431V151.1A2.767,2.767,0,0,0,486.847,148.341Zm1.658,213.193a1.659,1.659,0,0,1-1.658,1.658H259.784a1.659,1.659,0,0,1-1.658-1.658V151.1a1.661,1.661,0,0,1,1.658-1.658H486.847a1.661,1.661,0,0,1,1.658,1.658Z" transform="translate(-247.782 -144.939)" fill="#e6e6e6"/>
    <path id="Path_1861" data-name="Path 1861" d="M603.6,206.8c-.463,0-.839.8-.839,1.79v73.986c0,.987.376,1.79.839,1.79h80.249c.463,0,.839-.8.839-1.79V208.59c0-.987-.376-1.79-.839-1.79Z" transform="translate(-470.52 -182.6)" fill="#e6e6e6"/>
    <path id="Path_40" data-name="Path 40" d="M336.254,206.4a1.336,1.336,0,1,0,0,2.672h62.973a1.336,1.336,0,1,0,.044-2.671H336.254Z" transform="translate(-297.966 -182.342)" fill="#e6e6e6"/>
    <path id="Path_40-2" data-name="Path 40" d="M336.254,241.618a1.336,1.336,0,1,0,0,2.672h62.973a1.336,1.336,0,1,0,.044-2.671H336.254Z" transform="translate(-297.966 -205.031)" fill="#e6e6e6"/>
    <path id="Path_40-3" data-name="Path 40" d="M336.254,276.837a1.336,1.336,0,1,0,0,2.672h62.973a1.336,1.336,0,1,0,.044-2.671H336.254Z" transform="translate(-297.966 -227.72)" fill="#e6e6e6"/>
    <path id="Path_40-4" data-name="Path 40" d="M336.254,312.056a1.336,1.336,0,1,0,0,2.672h62.973a1.336,1.336,0,1,0,.044-2.671H336.254Z" transform="translate(-297.966 -250.409)" fill="#e6e6e6"/>
    <path id="Path_40-5" data-name="Path 40" d="M336.254,347.275a1.336,1.336,0,1,0,0,2.672h62.973a1.336,1.336,0,1,0,.044-2.671H336.254Z" transform="translate(-297.966 -273.098)" fill="#e6e6e6"/>
    <path id="Path_40-6" data-name="Path 40" d="M336.254,382.494a1.336,1.336,0,1,0,0,2.672h62.973a1.336,1.336,0,1,0,.044-2.671H336.254Z" transform="translate(-297.966 -295.787)" fill="#e6e6e6"/>
    <path id="Path_40-7" data-name="Path 40" d="M336.254,417.713a1.336,1.336,0,1,0,0,2.672h62.973a1.336,1.336,0,1,0,.044-2.671H336.254Z" transform="translate(-297.966 -318.476)" fill="#e6e6e6"/>
    <path id="Path_40-8" data-name="Path 40" d="M336.378,491.784a1.36,1.36,0,1,0,0,2.671H510.362a1.528,1.528,0,0,0,1.672-1.314,1.5,1.5,0,0,0-1.618-1.358H336.378Z" transform="translate(-297.863 -366.195)" fill="#e6e6e6"/>
    <path id="Path_40-9" data-name="Path 40" d="M336.378,524.784a1.36,1.36,0,1,0,0,2.671H510.362a1.528,1.528,0,0,0,1.672-1.314,1.5,1.5,0,0,0-1.618-1.358H336.378Z" transform="translate(-297.863 -387.454)" fill="#e6e6e6"/>
    <path id="Path_40-10" data-name="Path 40" d="M336.378,557.784a1.36,1.36,0,1,0,0,2.671H510.362a1.528,1.528,0,0,0,1.672-1.314,1.5,1.5,0,0,0-1.618-1.358H336.378Z" transform="translate(-297.863 -408.714)" fill="#e6e6e6"/>
    <path id="Path_40-11" data-name="Path 40" d="M336.378,590.784a1.36,1.36,0,1,0,0,2.671H510.362a1.528,1.528,0,0,0,1.672-1.314,1.5,1.5,0,0,0-1.618-1.358H336.378Z" transform="translate(-297.863 -429.974)" fill="#e6e6e6"/>
    <path id="Path_40-12" data-name="Path 40" d="M336.378,623.784a1.36,1.36,0,1,0,0,2.671H510.362a1.528,1.528,0,0,0,1.672-1.314,1.5,1.5,0,0,0-1.618-1.358H336.378Z" transform="translate(-297.863 -451.233)" fill="#e6e6e6"/>
    <path id="Path_40-13" data-name="Path 40" d="M336.378,656.784a1.36,1.36,0,1,0,0,2.671H510.362a1.528,1.528,0,0,0,1.672-1.314,1.5,1.5,0,0,0-1.618-1.358H336.378Z" transform="translate(-297.863 -472.493)" fill="#e6e6e6"/>
    <path id="Path_40-14" data-name="Path 40" d="M336.378,689.784a1.36,1.36,0,1,0,0,2.671H510.362a1.528,1.528,0,0,0,1.672-1.314,1.5,1.5,0,0,0-1.618-1.358H336.378Z" transform="translate(-297.863 -493.752)" fill="#e6e6e6"/>
    <ellipse id="Ellipse_445" data-name="Ellipse 445" cx="24.904" cy="1.899" rx="24.904" ry="1.899" transform="translate(-0.005 217.687) rotate(-0.092)" fill="#e6e6e6"/>
    <path id="Path_1862" data-name="Path 1862" d="M277.325,509.066l-1.107,6.607a3.773,3.773,0,0,1-5.2,2.849h0a3.773,3.773,0,0,1-1.925-5.109l2.593-5.386,3.774-25.646,6.957,1.868Z" transform="translate(-255.322 -360.138)" fill="#ffb8b8"/>
    <path id="Path_1863" data-name="Path 1863" d="M36.676,513.723l-5.488.955,4.643-37.315,8.927.76Z" transform="translate(-20.095 -307.531)" fill="#ffb8b8"/>
    <path id="Path_1864" data-name="Path 1864" d="M101.055,513.62l-5.488.955,4.643-37.315,8.927.76Z" transform="translate(-61.57 -307.464)" fill="#ffb8b8"/>
    <circle id="Ellipse_446" data-name="Ellipse 446" cx="6.887" cy="6.887" r="6.887" transform="translate(28.4 88.69)" fill="#ffb8b8"/>
    <path id="Path_1865" data-name="Path 1865" d="M86.578,282.872l-7.951-.744,1.116-12.306,9.275-.015Z" transform="translate(-50.657 -173.817)" fill="#ffb8b8"/>
    <path id="Path_1866" data-name="Path 1866" d="M304.236,505.388l-35.783-4.3a93.939,93.939,0,0,1,3.649-18.176c2.552-7.825,6.318-13.613,11.818-16.489l-.01-6.247-2.987-19.065a4.638,4.638,0,0,1,4.575-5.356l6.135.558,7.731,9.274a12.435,12.435,0,0,1,2.788,9.507l-2.694,21.526Z" transform="translate(-255.147 -330.102)" fill="#2f2e41"/>
    <path id="Path_1867" data-name="Path 1867" d="M291.8,458.974,280.7,455.147l4.458-12.927a5.134,5.134,0,0,1,4.18-3.416h0a5.134,5.134,0,0,1,5.675,6.247Z" transform="translate(-263.04 -332.036)" fill="#2f2e41"/>
    <path id="Path_1868" data-name="Path 1868" d="M268.109,729.465c-4.553-.116-3.474.517-4.553-.116-3.191-1.875-4.5-4.186-4.921.576l-1.7.192c-1.5-5.106-1.08-9.011.927-11.927l.564-2.651,5.489-.387c.486,5.123,2.716,9.2,5.157,10.982a1.9,1.9,0,0,1,.634.776h0a1.832,1.832,0,0,1-1.594,2.555Z" transform="translate(-247.144 -510.094)" fill="#2f2e41"/>
    <path id="Path_1869" data-name="Path 1869" d="M332.488,729.361c-4.553-.116-3.474.517-4.553-.116-3.191-1.875-4.5-4.186-4.921.576l-1.7.192c-1.5-5.106-1.08-9.011.927-11.927l.564-2.651,5.489-.387c.486,5.123,2.716,9.2,5.157,10.982a1.9,1.9,0,0,1,.634.776h0a1.832,1.832,0,0,1-1.594,2.555Z" transform="translate(-288.619 -510.028)" fill="#2f2e41"/>
    <path id="Path_1870" data-name="Path 1870" d="M310.417,384.341l3.509-1.722v-.426a6.759,6.759,0,0,0-6.414-6.86h0s-7.2-4-12.143,2.663-2.282,18.176-2.282,18.176l7.421-1.148.423-2.513,1.243,2.359,4.337-.222a48.8,48.8,0,0,0,.608-7.512C306.864,383.539,309.675,383.6,310.417,384.341Z" transform="translate(-270.555 -290.408)" fill="#2f2e41"/>
    <path id="Path_1871" data-name="Path 1871" d="M340.588,526.317l1,6.623a3.773,3.773,0,0,1-4.051,4.325h0a3.773,3.773,0,0,1-3.419-4.256l.788-5.925-4.395-25.547,7.192-.39Z" transform="translate(-295.13 -372.227)" fill="#ffb8b8"/>
    <path id="Path_1872" data-name="Path 1872" d="M333.7,470.294l-11.736.019-.022-13.674a5.134,5.134,0,0,1,2.831-4.6h0a5.134,5.134,0,0,1,7.408,4.043Z" transform="translate(-289.608 -340.241)" fill="#2f2e41"/>
    <path id="Path_1873" data-name="Path 1873" d="M468.025,192.572a.78.78,0,0,1-.317-.065.763.763,0,0,1-.466-.7l-.383-51.936a.773.773,0,0,1,.764-.78l31.427-.309a.773.773,0,0,1,.78.764l.383,51.936a.772.772,0,0,1-1.284.585h0l-15.156-13.452a.256.256,0,0,0-.345,0l-14.889,13.747a.764.764,0,0,1-.513.206Z" transform="translate(-382.966 -138.78)" fill="#d42917"/>
    <path id="Path_1874" data-name="Path 1874" d="M503.835,178.1l-4.691.113-.113-4.692a1.564,1.564,0,0,0-3.128.075l.113,4.692-4.692.113a1.564,1.564,0,0,0,.075,3.128l4.692-.113.113,4.692a1.564,1.564,0,1,0,3.128-.075l-.113-4.692,4.692-.113a1.564,1.564,0,0,0-.075-3.128Z" transform="translate(-397.743 -160.175)" fill="#fff"/>
  </g>
</svg>
