<svg xmlns="http://www.w3.org/2000/svg" width="26.441" height="26.441" viewBox="0 0 26.441 26.441">
  <g id="Group_3557" data-name="Group 3557" transform="translate(-145 -750.947)">
    <path id="Subtraction_7" data-name="Subtraction 7" d="M13.221,26.441A13.22,13.22,0,0,1,3.872,3.872a13.22,13.22,0,1,1,18.7,18.7A13.133,13.133,0,0,1,13.221,26.441ZM9.667,10.382a.2.2,0,0,0-.2.2v2.362a.2.2,0,0,0,.2.2H11.1v7.839a.2.2,0,0,0,.2.2h2.864a.2.2,0,0,0,.2-.2V13.145h2.077a.2.2,0,0,0,.2-.184l.2-2.362a.2.2,0,0,0-.2-.218H14.365V8.706a.712.712,0,0,1,.711-.711h1.6a.2.2,0,0,0,.2-.2V5.432a.2.2,0,0,0-.2-.2h-2.7A2.876,2.876,0,0,0,11.1,8.1v2.277Z" transform="translate(145 750.947)" fill="#2a79ca"/>
  </g>
</svg>
