<svg xmlns="http://www.w3.org/2000/svg" xmlns:xlink="http://www.w3.org/1999/xlink" width="366.918" height="216.161" viewBox="0 0 366.918 216.161">
  <defs>
    <linearGradient id="linear-gradient" x1="0.5" y1="0.999" x2="0.5" y2="-0.002" gradientUnits="objectBoundingBox">
      <stop offset="0" stop-color="gray" stop-opacity="0.251"/>
      <stop offset="0.54" stop-color="gray" stop-opacity="0.122"/>
      <stop offset="1" stop-color="gray" stop-opacity="0.102"/>
    </linearGradient>
    <linearGradient id="linear-gradient-2" x1="0.5" y1="1.002" x2="0.5" y2="0.002" xlink:href="#linear-gradient"/>
    <linearGradient id="linear-gradient-3" x1="0.036" y1="1" x2="0.036" y2="0" xlink:href="#linear-gradient"/>
  </defs>
  <g id="undraw_following_q0cr_1_" data-name="undraw_following_q0cr (1)" transform="translate(0 0.04)">
    <ellipse id="Ellipse_322" data-name="Ellipse 322" cx="47.366" cy="3.368" rx="47.366" ry="3.368" transform="translate(29.93 207.782)" fill="#d42917" opacity="0.1"/>
    <path id="Path_1712" data-name="Path 1712" d="M394.917,240.1a57.911,57.911,0,0,1-8.377,30.11c0,11.1-5.177,21.168-13.573,28.5a46.42,46.42,0,0,1-6.761,4.9c-.1.061-.2.119-.3.176l-.542.321-.17.1h0a52.8,52.8,0,0,1-26.011,6.684H97.653q-2.887,0-5.722-.231a67.723,67.723,0,0,1-19.584-4.535q-1.835-.725-3.6-1.559-.84-.395-1.665-.811c-.343-.173-.686-.353-1.026-.532a60.11,60.11,0,0,1-11.052-7.5c-10.9-9.375-17.666-22.326-17.666-36.631A57.892,57.892,0,0,1,28,227.431c0-31.8,25.415-57.575,56.77-57.575.962,0,1.924.029,2.887.08a2.931,2.931,0,0,1,.411.019,97.812,97.812,0,0,1,20.848-24.574C132.093,125.528,165.956,113,203.677,113c31.695,0,60.666,8.836,82.858,23.436a55.865,55.865,0,0,1,27.557-7.22c31.348,0,56.77,25.777,56.77,57.575a59.331,59.331,0,0,1-.321,6.023A57.732,57.732,0,0,1,394.917,240.1Z" transform="translate(-28 -113.04)" fill="#d42917" opacity="0.1"/>
    <path id="Path_1713" data-name="Path 1713" d="M461.605,219.865V373.553a5.9,5.9,0,0,1-5.9,5.918H219.9a5.816,5.816,0,0,1-1.629-.231A5.9,5.9,0,0,1,214,373.553V238.515a2.933,2.933,0,0,1,.411.019,97.811,97.811,0,0,1,20.848-24.574H455.7A5.9,5.9,0,0,1,461.605,219.865Z" transform="translate(-154.344 -181.619)" fill="#fff"/>
    <line id="Line_134" data-name="Line 134" x2="209.117" transform="translate(83.39 77.244)" fill="none" stroke="#3f3d56" stroke-linecap="round" stroke-miterlimit="10" stroke-width="1" opacity="0.7"/>
    <line id="Line_135" data-name="Line 135" x2="209.117" transform="translate(83.39 115.892)" fill="none" stroke="#3f3d56" stroke-linecap="round" stroke-miterlimit="10" stroke-width="1" opacity="0.7"/>
    <line id="Line_136" data-name="Line 136" x2="209.117" transform="translate(83.39 154.54)" fill="none" stroke="#3f3d56" stroke-linecap="round" stroke-miterlimit="10" stroke-width="1" opacity="0.7"/>
    <line id="Line_137" data-name="Line 137" x2="209.117" transform="translate(83.39 194.15)" fill="none" stroke="#3f3d56" stroke-linecap="round" stroke-miterlimit="10" stroke-width="1" opacity="0.7"/>
    <ellipse id="Ellipse_323" data-name="Ellipse 323" cx="47.366" cy="3.368" rx="47.366" ry="3.368" transform="translate(261.499 209.385)" fill="#d42917" opacity="0.1"/>
    <rect id="Rectangle_1138" data-name="Rectangle 1138" width="44.206" height="11.534" rx="5.767" transform="translate(165.071 52.3)" fill="#3f3d56"/>
    <rect id="Rectangle_1139" data-name="Rectangle 1139" width="38.443" height="7.675" rx="3.838" transform="translate(167.951 54.231)" opacity="0.1"/>
    <rect id="Rectangle_1140" data-name="Rectangle 1140" width="13.881" height="6.835" rx="3.417" transform="translate(191.55 54.651)" fill="#d42917"/>
    <circle id="Ellipse_324" data-name="Ellipse 324" cx="2.136" cy="2.136" r="2.136" transform="translate(196.249 55.931)" fill="#fff"/>
    <rect id="Rectangle_1141" data-name="Rectangle 1141" width="44.206" height="11.534" rx="5.767" transform="translate(165.071 128.33)" fill="#3f3d56"/>
    <rect id="Rectangle_1142" data-name="Rectangle 1142" width="38.443" height="7.675" rx="3.838" transform="translate(167.951 130.261)" opacity="0.1"/>
    <rect id="Rectangle_1143" data-name="Rectangle 1143" width="13.881" height="6.835" rx="3.417" transform="translate(191.55 130.681)" fill="#d42917"/>
    <circle id="Ellipse_325" data-name="Ellipse 325" cx="2.136" cy="2.136" r="2.136" transform="translate(196.249 131.96)" fill="#fff"/>
    <rect id="Rectangle_1144" data-name="Rectangle 1144" width="44.206" height="11.534" rx="5.767" transform="translate(165.071 166.346)" fill="#3f3d56"/>
    <rect id="Rectangle_1145" data-name="Rectangle 1145" width="38.443" height="7.675" rx="3.838" transform="translate(167.951 168.274)" opacity="0.1"/>
    <rect id="Rectangle_1146" data-name="Rectangle 1146" width="13.881" height="6.835" rx="3.417" transform="translate(191.55 168.694)" fill="#d42917"/>
    <circle id="Ellipse_326" data-name="Ellipse 326" cx="2.136" cy="2.136" r="2.136" transform="translate(196.249 169.977)" fill="#fff"/>
    <rect id="Rectangle_1147" data-name="Rectangle 1147" width="44.206" height="11.534" rx="5.767" transform="translate(165.071 90.317)" fill="#3f3d56"/>
    <rect id="Rectangle_1148" data-name="Rectangle 1148" width="38.443" height="7.675" rx="3.838" transform="translate(167.951 92.244)" opacity="0.1"/>
    <rect id="Rectangle_1149" data-name="Rectangle 1149" width="13.881" height="6.835" rx="3.417" transform="translate(182.794 99.502) rotate(180)" fill="#d42917"/>
    <circle id="Ellipse_327" data-name="Ellipse 327" cx="2.136" cy="2.136" r="2.136" transform="translate(173.824 93.947)" fill="#fff"/>
    <path id="Path_1714" data-name="Path 1714" d="M343.649,262.064a15.074,15.074,0,0,1-7.348,12.948l-.205.122-.388.215h0l-.369.192-.058.029q-.231.115-.471.221a14.688,14.688,0,0,1-1.568.609c-.35.112-.7.215-1.058.3a14.946,14.946,0,0,1-2.223.369c-.455.042-.914.064-1.379.064a15.7,15.7,0,0,1-1.658-.09h-.1c-.189-.019-.378-.045-.568-.074a15.592,15.592,0,0,1-1.783-.388l-.292-.087-.257-.08-.083-.029a14.887,14.887,0,0,1-1.539-.6h0a14.675,14.675,0,0,1-2.454-1.421l-.038-.026-.026-.019-.276-.2-.208-.16a14.1,14.1,0,0,1-1.167-1.017q-.52-.5-.988-1.049a15.074,15.074,0,1,1,26.5-9.827Z" transform="translate(-221.931 -204.052)" fill="#434175"/>
    <path id="Path_1715" data-name="Path 1715" d="M343.2,293.7h0l-.382.115a.844.844,0,0,1-.59-.2l-.125-.119a.468.468,0,0,0-.3-.164h-.032a.32.32,0,0,1-.132,0,.035.035,0,0,1-.026,0,.16.16,0,0,1-.074-.128,6.3,6.3,0,0,1-.17-.876,8.175,8.175,0,0,1,0-.962V290.6a7.118,7.118,0,0,0,.074-.866,3.243,3.243,0,0,0-.087-.917,2.564,2.564,0,0,0-.18-.481h0c-.051-.433-.112-.866-.173-1.283-.045-.321-.093-.641-.151-.962a1.4,1.4,0,0,0,.032-.16,1.556,1.556,0,0,0-.552-1.4,1.685,1.685,0,0,0-.411-.253c-.122-.051-.247-.093-.372-.135l-2.014-.641c-.189-.279-.369-.564-.542-.856a5.983,5.983,0,0,1-.423-.818,3.326,3.326,0,0,0,.831-4.378c-.032-.051-.071-.1-.106-.148h0a2.155,2.155,0,0,0-.087-.747.045.045,0,0,0,0-.019,1.062,1.062,0,0,0-.276-.536l-.067-.074a1.025,1.025,0,0,0-.1-.106,3.734,3.734,0,0,0-.436-.375,7.451,7.451,0,0,0-2.377-1.312,2.723,2.723,0,0,0-1.225,0h0l-.064-.022-.119-.022.093.045a2.681,2.681,0,0,0-1.305.022c-.529.164-.715.6-.94,1.071a4.785,4.785,0,0,1-1.6,1.892c-.439.3-.962.564-1.174,1.065a3.049,3.049,0,0,0-.019,1.511,4.2,4.2,0,0,1-1.523,3.611c-.6.481-1.4.882-1.53,1.652a2.868,2.868,0,0,0,.436,1.578,3.908,3.908,0,0,1,.08,3.4c-.055.1-.112.189-.167.279.3.372.641.725.962,1.065a14.578,14.578,0,0,0,1.151,1.03l.205.164.273.2.026.022.038.026a14.454,14.454,0,0,0,2.418,1.44.157.157,0,0,1,.019-.055.217.217,0,0,0,0,.064,14.252,14.252,0,0,0,1.517.609l.08.029.253.083.289.087a15.176,15.176,0,0,0,1.758.395c.186.029.372.055.561.074h.093a15.3,15.3,0,0,0,1.636.09c.459,0,.911-.022,1.36-.064a14.21,14.21,0,0,0,2.191-.375c.087-.019.173-.045.26-.07.263-.071.523-.148.783-.234a14.358,14.358,0,0,0,1.546-.616c.157-.074.321-.148.465-.224l.058-.029.362-.2h0A.026.026,0,0,1,343.2,293.7Zm-12.852-.443a.639.639,0,0,0,0-.08,1.365,1.365,0,0,1,0-.257.4.4,0,0,1,.058-.141v.154A.87.87,0,0,1,330.344,293.254Z" transform="translate(-229.423 -222.444)" fill="url(#linear-gradient)"/>
    <path id="Path_1716" data-name="Path 1716" d="M342.644,294.276h0l-.388.115a.869.869,0,0,1-.6-.192c-.042-.035-.087-.08-.128-.119a.468.468,0,0,0-.3-.16H341.2a.32.32,0,0,1-.135,0,.035.035,0,0,1-.026,0,.173.173,0,0,1-.077-.128,6.133,6.133,0,0,1-.17-.863,7.982,7.982,0,0,1,0-.962v-.754h0a6.962,6.962,0,0,0,.074-.856,3.164,3.164,0,0,0-.087-.9,2.846,2.846,0,0,0-.183-.475h0c-.051-.427-.115-.853-.176-1.283-.045-.321-.093-.641-.154-.962a1,1,0,0,1,.035-.157,1.514,1.514,0,0,0-.561-1.386,1.715,1.715,0,0,0-.417-.25c-.122-.051-.25-.093-.378-.135l-2.043-.641c-.189-.276-.372-.558-.548-.844a5.577,5.577,0,0,1-.43-.808,3.207,3.207,0,0,0,.844-4.32c-.032-.051-.071-.1-.106-.144h0a2.1,2.1,0,0,0-.087-.738.046.046,0,0,0,0-.019,1.14,1.14,0,0,0-.071-.224,1.317,1.317,0,0,0-.208-.3l-.071-.074a1.006,1.006,0,0,0-.1-.1,3.772,3.772,0,0,0-.452-.35,7.385,7.385,0,0,0-2.412-1.283,2.793,2.793,0,0,0-1.241,0h0l-.064-.019-.119-.022.093.045a2.762,2.762,0,0,0-1.325.022c-.536.16-.725.587-.962,1.055a4.763,4.763,0,0,1-1.6,1.867,2.943,2.943,0,0,0-1.19,1.052,2.771,2.771,0,0,0-.019,1.491,4.105,4.105,0,0,1-1.546,3.563c-.609.475-1.421.869-1.552,1.629a2.762,2.762,0,0,0,.443,1.559,3.79,3.79,0,0,1,.08,3.355c-.055.093-.112.186-.17.276a13.853,13.853,0,0,0,.988,1.049,14.107,14.107,0,0,0,1.167,1.017l.208.16.276.2.026.019.039.026a14.676,14.676,0,0,0,2.454,1.421.167.167,0,0,1,.019-.051,1.568,1.568,0,0,1,.077-.167,1.866,1.866,0,0,0,.285-.641.639.639,0,0,0,0-.08,1.333,1.333,0,0,1,0-.253.407.407,0,0,1,.058-.138c.035-.064.087-.125.128-.189a.7.7,0,0,0,.061-.106h0c.035.048.067.1.1.148.115.176.228.353.34.532a.824.824,0,0,1,.167.411.671.671,0,0,0,0,.266c.048.112.208.205.148.321a.423.423,0,0,0,0,.378,1.788,1.788,0,0,0,.135.183l.083.029.257.08.292.087a15.59,15.59,0,0,0,1.783.388c.189.029.378.055.568.074h.1a15.717,15.717,0,0,0,1.658.09c.465,0,.924-.022,1.379-.064a14.954,14.954,0,0,0,2.223-.369c.09-.019.176-.045.266-.071.266-.071.529-.144.792-.231a14.7,14.7,0,0,0,1.568-.609q.241-.106.471-.221l.058-.029.369-.192h0Z" transform="translate(-228.871 -223.002)" fill="#d42917" opacity="0.3"/>
    <path id="Path_1717" data-name="Path 1717" d="M342.649,381.094a15,15,0,0,1-1.847,7.236,14.234,14.234,0,0,1-.84,1.353,13.983,13.983,0,0,1-.985,1.283.484.484,0,0,1-.067.074c-.135.16-.279.321-.427.468l-.164.173c-.167.17-.337.321-.513.494a.577.577,0,0,1-.064.061c-.08.074-.164.151-.25.221a14.683,14.683,0,0,1-1.418,1.1c-.253.173-.51.34-.773.5l-.205.122-.388.215h0l-.263.138-.106.055-.058.029q-.154.077-.321.144c-.055.029-.109.051-.164.077l-.321.135c-.282.122-.571.237-.863.34h0l-.391.132h-.045a.553.553,0,0,1-.1.029l-.074.026-.218.064-.074.022-.093.026-.135.035a.5.5,0,0,1-.093.026l-.228.061h0c-.167.042-.337.08-.507.112a14.461,14.461,0,0,1-1.716.257c-.436.038-.872.061-1.318.064h-.1c-.423,0-.837-.019-1.251-.055l-.366-.035h-.154l-.51-.067-.407-.071-.1-.019c-.189-.035-.378-.074-.564-.122a.1.1,0,0,1-.045,0c-.225-.048-.446-.106-.664-.167l-.292-.087-.257-.08-.083-.029h0a15.4,15.4,0,0,1-1.527-.6h0q-.516-.237-1.01-.51l-.148-.083-.218-.125-.119-.071c-.321-.2-.641-.411-.962-.641l-.038-.026-.026-.019-.276-.2-.208-.16a14.107,14.107,0,0,1-1.167-1.017q-.52-.5-.988-1.049a15.074,15.074,0,1,1,26.509-9.834Z" transform="translate(-221.252 -284.914)" fill="#434175"/>
    <path id="Path_1718" data-name="Path 1718" d="M348.108,416.8a.555.555,0,0,0-.08-.093.414.414,0,0,0-.074-.058.741.741,0,0,1-.285-.706.667.667,0,0,0,0-.083,4.363,4.363,0,0,0-.372-.946c-.08-.17-.18-.43-.266-.674-.115-.321-.208-.613-.208-.613a.333.333,0,0,0-.016-.083c-.039-.2-.144-.77-.237-1.3v-.093a12.629,12.629,0,0,0-1.254-2.5h0a.125.125,0,0,0-.048-.061c-.253-.119-1.119-.616-1.119-.616a2.242,2.242,0,0,0-1.671-1.02h-.157a1,1,0,0,0-.106,0,1.251,1.251,0,0,0-.167.042l-.061.019a.592.592,0,0,0-.083.035l-.019.157a3.556,3.556,0,0,1,.09-1.161l.032-.109h.186a3.146,3.146,0,0,0,2.98-4.012v-.045l.093-.045c.378-.144.866.1,1.177-.16a.921.921,0,0,0,.234-.411,2.482,2.482,0,0,0,.17-.657,1.1,1.1,0,0,0,0-.205v-.026a.764.764,0,0,0-.164-.407c-.2-.241-.542-.3-.8-.478a2.01,2.01,0,0,1-.51-.613,2.2,2.2,0,0,0-.5-.622.725.725,0,0,0-.744-.122.875.875,0,0,1-.247.119.516.516,0,0,1-.269-.074,5.173,5.173,0,0,0-2.887-.221,3.777,3.777,0,0,0-1.132.276,1.373,1.373,0,0,0-.763.85c-.08.3-.019.641-.115.927-.064.2-.2.378-.269.574a1.266,1.266,0,0,0-.071.337v.205a9.506,9.506,0,0,0,.221,1.171,8.138,8.138,0,0,0,.321,1.892,1.114,1.114,0,0,0,.1.205c-.093.2-.189.4-.289.6h0a1.376,1.376,0,0,0-.148-.032h-.115a.468.468,0,0,0-.115,0h0a.359.359,0,0,0-.08.035l-.032.029-.022.016a.132.132,0,0,0-.026.042.052.052,0,0,0,0,.022.4.4,0,0,0-.032.122h0v.032a.754.754,0,0,1-.019.205c-.019.071,0,.08-.016.119a.926.926,0,0,1-.016.1v.026a.524.524,0,0,1-.026.119l-.048.144-.019.042c-.019.042-.039.083-.061.122h0l-.109.112a.125.125,0,0,0-.067.122h0l-.048.038a.163.163,0,0,0-.067.026c-.022-.051-.112-.051-.391.289a5.3,5.3,0,0,1-1.283.994s-1.883,1.341-1.985,1.96-.709,3.294-.388,4.189c.042.115.122.3.228.513v.019s.093.356.241.882c.038.022.077.051.119.074l.218.125.148.087c.321.183.667.356,1.01.516h0a15.432,15.432,0,0,0,1.527.606h0l.083.029.257.083.292.087c.218.061.439.119.664.17a.1.1,0,0,0,.045,0c.186.048.375.087.565.122l.1.019.407.074.51.067h.154l.366.035c.414.035.827.055,1.251.055h.1c.446,0,.882-.026,1.318-.064a14.462,14.462,0,0,0,1.716-.26c.17-.032.34-.071.507-.115h0l.228-.061a.5.5,0,0,0,.093-.026l.135-.035.093-.026.074-.022.218-.064.074-.029a.552.552,0,0,0,.1-.029h.045l.391-.132h0c.292-.106.581-.221.863-.346l.321-.135c.055-.026.109-.048.164-.08A.964.964,0,0,0,348.108,416.8Zm-6.219-8.5h-.019v-.019h0Z" transform="translate(-235.531 -307.212)" fill="url(#linear-gradient-2)"/>
    <path id="Path_1719" data-name="Path 1719" d="M348.142,417.452a.7.7,0,0,0-.08-.09.42.42,0,0,0-.074-.058.725.725,0,0,1-.285-.7.679.679,0,0,0,0-.083,4.268,4.268,0,0,0-.372-.933c-.08-.167-.18-.423-.266-.664-.115-.321-.208-.606-.208-.606l-.016-.08c-.039-.2-.144-.76-.237-1.283v-.093a12.432,12.432,0,0,0-1.254-2.473h0a.113.113,0,0,0-.048-.058c-.253-.119-1.119-.609-1.119-.609a2.247,2.247,0,0,0-1.671-1.007h-.157a1,1,0,0,0-.106,0,1.254,1.254,0,0,0-.167.042l-.061.019a.6.6,0,0,0-.083.035l-.019.157a3.475,3.475,0,0,1,.09-1.148.446.446,0,0,1,.032-.106h.186a3.1,3.1,0,0,0,3.1-3.1,3.046,3.046,0,0,0-.122-.86v-.042l.051-.013c.378-.141.866.1,1.177-.157a.908.908,0,0,0,.234-.407,2.386,2.386,0,0,0,.17-.641,1.064,1.064,0,0,0,0-.2v-.026a.754.754,0,0,0-.164-.4c-.2-.241-.542-.3-.8-.475a1.924,1.924,0,0,1-.51-.6,2.21,2.21,0,0,0-.491-.616.722.722,0,0,0-.744-.115.963.963,0,0,1-.247.115.517.517,0,0,1-.269-.074,5.2,5.2,0,0,0-2.887-.218,3.678,3.678,0,0,0-1.132.273,1.36,1.36,0,0,0-.763.837c-.08.3-.019.622-.115.917-.064.2-.2.372-.269.568a1.173,1.173,0,0,0-.071.321v.2a9.265,9.265,0,0,0,.221,1.155,8.008,8.008,0,0,0,.321,1.87,1.2,1.2,0,0,0,.1.2c-.093.2-.189.4-.289.587h0a1.373,1.373,0,0,0-.148-.032h-.115a.468.468,0,0,0-.115,0h0a.394.394,0,0,0-.077.032l-.032.029-.022.016a.131.131,0,0,0-.026.042.052.052,0,0,0,0,.022.372.372,0,0,0-.032.122h0v.032a.721.721,0,0,1-.019.2c-.019.067,0,.08-.016.119s0,.064-.016.1,0,.016,0,.026-.016.08-.026.119l-.048.144-.019.039a1.021,1.021,0,0,1-.061.119h0a.346.346,0,0,1-.061.042.125.125,0,0,0-.067.122h0l-.048.038a.147.147,0,0,0-.067.022c-.023-.048-.112-.048-.391.285a5.287,5.287,0,0,1-1.283.981s-1.883,1.325-1.985,1.924-.709,3.252-.388,4.134c.042.115.122.292.228.507v.019s.093.353.241.872l.119.071.218.125.148.083q.494.276,1.01.51h0a15.4,15.4,0,0,0,1.527.6h0l.083.029.257.08.292.087c.218.061.439.119.664.167a.1.1,0,0,0,.045,0c.186.048.375.087.565.122l.1.019.407.071.51.067h.154l.366.035c.414.035.828.055,1.251.055h.1c.446,0,.882-.026,1.318-.064a14.458,14.458,0,0,0,1.716-.257c.17-.032.34-.071.507-.112h0l.228-.061a.5.5,0,0,0,.093-.026l.135-.035.093-.026.074-.022.218-.064.074-.026a.546.546,0,0,0,.1-.029h.045l.391-.132h0c.292-.1.581-.218.863-.34l.321-.135c.055-.026.109-.048.164-.077A.962.962,0,0,0,348.142,417.452Zm-6.219-8.384H341.9v-.019h0Z" transform="translate(-235.565 -307.844)" fill="#d42917" opacity="0.3"/>
    <path id="Path_1720" data-name="Path 1720" d="M343.649,498.952a15,15,0,0,1-1.847,7.236,14.234,14.234,0,0,1-.84,1.353,13.988,13.988,0,0,1-.985,1.283.484.484,0,0,1-.067.074c-.135.16-.279.321-.427.468l-.164.173c-.167.17-.337.321-.513.494a.585.585,0,0,1-.064.061c-.08.074-.164.151-.25.221a14.684,14.684,0,0,1-1.418,1.1c-.253.173-.51.34-.773.5l-.205.122-.388.215h0l-.189.1H335.5l-.051.029-.106.055-.058.029-.321.144-.164.077-.321.135-.455.189h0l-.241.09-.164.061h0l-.391.131h-.045l-.1.029-.074.026-.218.064-.074.022h-.093l-.135.035a.511.511,0,0,1-.093.026l-.228.061h0c-.167.042-.337.08-.507.112-.276.058-.555.109-.834.151s-.587.08-.882.106c-.436.038-.872.061-1.318.064h-.1c-.423,0-.837-.019-1.251-.055l-.366-.035h-.154a3.032,3.032,0,0,1-.462-.061h-.048l-.407-.071-.1-.019c-.189-.035-.378-.074-.565-.122a.1.1,0,0,1-.045,0c-.225-.048-.446-.106-.664-.167l-.292-.087-.257-.08-.083-.029h0l-.234-.08-.164-.058h0c-.119-.042-.234-.087-.35-.135h0l-.119-.048h0l-.151-.061q-.25-.1-.491-.212h0q-.516-.234-1.01-.51l-.148-.083-.218-.125-.119-.071a5.408,5.408,0,0,1-.478-.321h0c-.16-.106-.321-.212-.468-.321l-.038-.026-.026-.019-.276-.2-.208-.16a14.124,14.124,0,0,1-1.167-1.017q-.52-.5-.988-1.049a15.074,15.074,0,1,1,26.47-9.811Z" transform="translate(-221.931 -364.926)" fill="#434175"/>
    <g id="Group_3544" data-name="Group 3544" transform="translate(98.288 128.944)" opacity="0.3">
      <path id="Path_1721" data-name="Path 1721" d="M345.29,463.153l.01,0-.01,0Z" transform="translate(-332.833 -443.574)" fill="#d42917"/>
      <path id="Path_1722" data-name="Path 1722" d="M349.316,532.854a.186.186,0,0,1-.093-.064h0a.53.53,0,0,1,.279-.16c.1-.026.154-.173.141-.321h0a.542.542,0,0,0-.119-.4.283.283,0,0,1-.067-.112h0a2.8,2.8,0,0,1,.189-.346.109.109,0,0,0,0-.109c.09-.221-.321-.18-.321-.18v-2.107s-.032-.17-.077-.494-.109-.8-.17-1.4c-.122-1.209-.6-1.334-.6-1.334a5.422,5.422,0,0,1-.744-.292,5.074,5.074,0,0,0-.783-.292,4.016,4.016,0,0,1-1.014-.141,3.1,3.1,0,0,0-.69-.148l-.074-.038a2.672,2.672,0,0,1-1.238-1.283h0a2.6,2.6,0,0,0,.276-.372h0v.241h0c.321-.577,1.283-.709,1.376-1.366v-.023a.754.754,0,0,0,0-.17h0a.731.731,0,0,0,0-.083h0v-.067a5.03,5.03,0,0,0-.083-.5v-.032a1.122,1.122,0,0,1,.026-.144.286.286,0,0,1,0-.045,1.324,1.324,0,0,1,.048-.16h0c.135-.362.385-.7.52-1.074a1.788,1.788,0,0,0,.067-.257v-.035a2.2,2.2,0,0,0,.026-.253v-.18a.042.042,0,0,0,0-.022.108.108,0,0,0,0-.032.831.831,0,0,0,0-.09,1.95,1.95,0,0,0-.641-1.411c-.321-.285-.763-.465-.991-.837-.106-.176-.157-.378-.276-.548a1.376,1.376,0,0,0-1-.491,5.563,5.563,0,0,1-1.132-.151c-.26-.083-.491-.234-.75-.321a1.437,1.437,0,0,0-1.546.555,2.6,2.6,0,0,1-.411.6c-.378.321-1.02.183-1.353.552a.92.92,0,0,0-.18.7v.048h0v.128a.157.157,0,0,1,0,.039.822.822,0,0,0,0,.125v.131a2.079,2.079,0,0,0,.032.247,3.765,3.765,0,0,1,.032.423v.064a4.39,4.39,0,0,1-.478,1.854,5.667,5.667,0,0,0-.856,1.863,1.546,1.546,0,0,0,0,.3V522.8a.417.417,0,0,0,0,.064v.369l.029.154a.76.76,0,0,0,0,.083l.048.2v.035c.09.321.208.667.279,1a3.243,3.243,0,0,1,.058.346.092.092,0,0,0,0,.029c0,.1.016.2.019.292h0v.026h0v.051a3.738,3.738,0,0,1-.481.148c-.289.042-1.135.792-1.074.978a.268.268,0,0,1,0,.08.294.294,0,0,1,0,.051h0a12.376,12.376,0,0,1-.391,1.4h0l-.68,4.686h0c.157.106.321.205.478.321l.119.071.218.125.148.083q.494.273,1.01.51h0q.241.112.491.212l.151.061h0l.119.048h0a.524.524,0,0,0,.192.119h.138a.318.318,0,0,0,.1,0h.051l.164.058.234.08h0l.083.029.257.08.292.087c.218.061.439.119.664.167a.1.1,0,0,0,.045,0c.186.048.375.087.564.122l.1.019.407.071h.048c.154.022.321.045.462.061h.154l.366.035c.414.035.827.055,1.251.055h.1c.446,0,.882-.026,1.318-.064.3-.026.59-.061.882-.106s.558-.093.834-.151c.17-.032.34-.071.507-.112h0l.228-.061a.5.5,0,0,0,.093-.026l.135-.035h.039c0-.218-.026-.4-.032-.548.048.064.1.119.128.16a.16.16,0,0,1,.035.071h0a1.32,1.32,0,0,0-.119.321h.029l.074-.022.218-.064.074-.026.1-.029h.045l.391-.131h0l.164-.061.241-.09h0l.455-.189.321-.135.164-.077.321-.144.058-.029.106-.055.051-.029h.022a1.379,1.379,0,0,0,0-.225h0v-.035h0v-.08C349.752,533.146,349.585,532.957,349.316,532.854Zm-12.156-7.47Z" transform="translate(-334.45 -515.155)" fill="#d42917"/>
      <path id="Path_1723" data-name="Path 1723" d="M336.288,574.576l-.058-.026A.2.2,0,0,0,336.288,574.576Z" transform="translate(-335.659 -555.5)" fill="#d42917"/>
    </g>
    <path id="Path_1724" data-name="Path 1724" d="M343.649,617.943a15,15,0,0,1-1.847,7.236,14.235,14.235,0,0,1-.84,1.354,14,14,0,0,1-.985,1.283.287.287,0,0,1-.061.064h0c-.135.16-.279.321-.427.468l-.045.048-.119.125c-.167.17-.337.321-.513.494a.577.577,0,0,1-.064.061c-.08.074-.164.151-.25.221a11.7,11.7,0,0,1-1.046.837l-.064.045-.132.093c-.058.045-.115.083-.176.125-.253.173-.51.34-.773.5l-.115.071-.09.051-.388.215h0l-.189.1H335.5l-.051.029-.106.055-.058.029-.321.144-.164.077-.321.135-.455.189h0l-.241.09-.164.061h0l-.064.022-.321.109h-.045l-.1.029-.074.026-.087.026-.132.039-.074.022h-.093l-.135.035a.5.5,0,0,1-.093.026l-.228.061h0c-.167.042-.337.08-.507.112-.276.058-.555.109-.834.151q-.25.038-.5.067h-.061l-.321.032c-.436.038-.872.061-1.318.064h-.366c-.321,0-.661-.022-.988-.051h-.1l-.269-.026h-.154l-.321-.039-.154-.022h-.048l-.407-.071-.1-.019-.269-.051-.112-.026-.183-.045a.1.1,0,0,1-.045,0c-.224-.048-.446-.106-.664-.167l-.115-.035h-.042l-.135-.038-.125-.039-.131-.042-.083-.029h0l-.234-.08-.164-.058h0l-.151-.067-.2-.077h0l-.119-.048h0l-.151-.061q-.25-.1-.491-.212h0c-.253-.115-.5-.237-.747-.372-.09-.042-.176-.09-.263-.138l-.067-.038h0l-.077-.042-.218-.125-.119-.07a5.429,5.429,0,0,1-.478-.321h0c-.16-.106-.321-.212-.468-.321l-.039-.026-.026-.019-.132-.1-.144-.106-.026-.019c-.061-.048-.125-.093-.183-.141a14.118,14.118,0,0,1-1.167-1.017q-.52-.5-.988-1.049a15.074,15.074,0,1,1,26.464-9.814Z" transform="translate(-221.931 -445.75)" fill="#434175"/>
    <path id="Path_1725" data-name="Path 1725" d="M350.62,648.707a.5.5,0,0,0-.667-.218l-4.391,2.245a.52.52,0,0,0-.055-.17h0a.4.4,0,0,0-.18-.321.3.3,0,0,1-.1-.093h0a.931.931,0,0,1,0-.1h0a.289.289,0,0,0-.051-.228.565.565,0,0,0-.241-.411h-.016V649.3a.446.446,0,0,0-.061-.2h0c-.016-.208-.167-.4-.468-.686a1.068,1.068,0,0,1-.241-.43v-.019c-.055-.208-.109-.443-.186-.68a3.823,3.823,0,0,0-.128-.4c-.237-.613-.5-.532-.6-.641s-.8-.247-1.148-.43a3.783,3.783,0,0,0-1.584.07v-.061a2.97,2.97,0,0,0,2.053-3.457l-.019-.074a1.2,1.2,0,0,0,.455-.09.6.6,0,0,0,.208-.385,1.924,1.924,0,0,0,.058-.86c0-.029-.026-.058-.035-.087a.5.5,0,0,0-.022-.074h0a.318.318,0,0,0,0-.077,1.232,1.232,0,0,0-.1-.263.044.044,0,0,1,0,.022,9.219,9.219,0,0,0-.738-.991c-.257-.385-.4-.872-.792-1.129a1.6,1.6,0,0,0-1.325-.067,3.77,3.77,0,0,1-.622.16,6.564,6.564,0,0,1-1.062-.064,2.287,2.287,0,0,0-1.411.375.792.792,0,0,0-.231.231,1.205,1.205,0,0,0-.1.417,2.031,2.031,0,0,1-.276.76c-.109.186-.247.35-.346.539a.827.827,0,0,0-.093.619c.035.109.1.205.125.321a1.171,1.171,0,0,1-.225.731,1.392,1.392,0,0,0-.154.7.9.9,0,0,0,.2.5h0a.712.712,0,0,0,.064.131l.016.022a.912.912,0,0,0,.064.09l.032.032.064.064a1.078,1.078,0,0,0,.625.2h0a1.044,1.044,0,0,0,.055.1v.058a.325.325,0,0,0,0,.055,1.6,1.6,0,0,0-.866.356,1.248,1.248,0,0,1-.76.321s-.625.208-.613.263-.183.128-.577.234a2.544,2.544,0,0,0-1.042.574c0,.093-1.033,1.107-1.033,1.212a2.566,2.566,0,0,0-.276,1.184,4.234,4.234,0,0,1-.077,1.71c-.157.144,0,.7,0,.7a.391.391,0,0,1,0,.417,3.542,3.542,0,0,0,.026,1.212v1.017a2.354,2.354,0,0,1,.058.443l.026.019.144.106.132.1.026.019.038.026c.154.109.321.215.468.321h0c.157.106.321.205.478.321l.119.07.218.125.077.042h0l.067.039c.087.048.173.1.263.138.244.135.494.257.747.372h0q.241.112.491.212l.151.061h0l.119.048h0l.2.077.154.058h0l.164.058.234.08h0l.083.029.132.042.125.038.135.038h.042l.115.035c.218.061.439.119.664.167a.1.1,0,0,0,.045,0l.183.045.112.026.269.051.1.019.407.07h.048l.154.022.321.038h.154l.269.026h.1c.321.029.641.045.988.051h.366c.446,0,.882-.026,1.318-.064l.321-.032h.061q.25-.029.5-.067c.279-.042.558-.093.834-.151.17-.032.34-.071.507-.112h0l.228-.061a.51.51,0,0,0,.093-.026l.135-.035h.093l.074-.022.132-.038.087-.026.074-.026.1-.029h.045l.321-.109.064-.022h0l.164-.061.241-.09h0l.455-.189.321-.135.164-.077.321-.144.058-.029.106-.055.051-.029h.022l.189-.1h0l.388-.215.09-.051.115-.071c.263-.157.52-.321.773-.5.061-.042.119-.08.176-.125h.064l.067-.1.064-.045c.362-.263.712-.542,1.046-.837.087-.071.17-.148.25-.221a.577.577,0,0,0,.064-.061c.176-.16.346-.321.513-.494l.119-.125.045-.048c.148-.151.292-.321.427-.468h0Zm-7.309,5.029-.08.019a.135.135,0,0,1,.026-.067s-.491.019-.988.058a.734.734,0,0,1,.026-.247,5.881,5.881,0,0,0,.244-1.081h0l.853,1.3Zm.164,2.476a1.168,1.168,0,0,0,0-.128c.029-.019.048-.035.051-.048a3.262,3.262,0,0,0-.048-.427h.077l.9-.141a1.646,1.646,0,0,0,.321-.045l.074.144a4.64,4.64,0,0,0-1.155.516.439.439,0,0,1-.215.128Z" transform="translate(-234.262 -469.779)" fill="#d42917" opacity="0.3"/>
    <path id="Path_1726" data-name="Path 1726" d="M852.925,276.718l-1.283-1.283a.677.677,0,0,0-.962,0l-7.973,7.909-3.374-3.4a.67.67,0,0,0-.962,0l-1.283,1.283a.68.68,0,0,0,0,.962l5.132,5.161a.68.68,0,0,0,.962,0l9.731-9.657a.677.677,0,0,0,.013-.975Z" transform="translate(-577.452 -223.24)" fill="#3acc6c"/>
    <path id="Path_1727" data-name="Path 1727" d="M852.959,393.858l-1.283-1.283a.677.677,0,0,0-.962,0l-7.957,7.922-3.374-3.4a.67.67,0,0,0-.962,0l-1.283,1.283a.68.68,0,0,0,0,.962l5.132,5.161a.68.68,0,0,0,.962,0l9.721-9.683a.677.677,0,0,0,.006-.962Z" transform="translate(-577.486 -302.81)" fill="#3acc6c"/>
    <path id="Path_1728" data-name="Path 1728" d="M852.922,630.26l-1.283-1.283a.68.68,0,0,0-.962,0l-7.973,7.909-3.374-3.4a.677.677,0,0,0-.962,0l-1.283,1.283a.677.677,0,0,0,0,.962l5.132,5.161a.683.683,0,0,0,.962,0l9.731-9.66a.67.67,0,0,0,.013-.972Z" transform="translate(-577.449 -463.392)" fill="#3acc6c"/>
    <ellipse id="Ellipse_328" data-name="Ellipse 328" cx="4.33" cy="8.685" rx="4.33" ry="8.685" transform="matrix(0.797, -0.604, 0.604, 0.797, 37.563, 22.628)" fill="#d42917"/>
    <ellipse id="Ellipse_329" data-name="Ellipse 329" cx="4.33" cy="8.685" rx="4.33" ry="8.685" transform="matrix(0.797, -0.604, 0.604, 0.797, 37.563, 22.628)" opacity="0.1"/>
    <ellipse id="Ellipse_330" data-name="Ellipse 330" cx="3.98" cy="8.461" rx="3.98" ry="8.461" transform="matrix(0.797, -0.604, 0.604, 0.797, 37.956, 22.61)" fill="#d42917"/>
    <path id="Path_1729" data-name="Path 1729" d="M156.12,176.45A39.036,39.036,0,0,0,162.3,185.4c.468.5.962,1,1.424,1.491l2.678,2.758" transform="translate(-115.028 -156.14)" fill="#407d3b" opacity="0.3"/>
    <ellipse id="Ellipse_331" data-name="Ellipse 331" cx="4.33" cy="8.685" rx="4.33" ry="8.685" transform="matrix(0.797, -0.604, 0.604, 0.797, 26.015, 8.196)" fill="#d42917"/>
    <ellipse id="Ellipse_332" data-name="Ellipse 332" cx="4.33" cy="8.685" rx="4.33" ry="8.685" transform="matrix(0.797, -0.604, 0.604, 0.797, 26.015, 8.196)" opacity="0.1"/>
    <ellipse id="Ellipse_333" data-name="Ellipse 333" cx="3.98" cy="8.461" rx="3.98" ry="8.461" transform="matrix(0.797, -0.604, 0.604, 0.797, 26.411, 8.178)" fill="#d42917"/>
    <path id="Path_1730" data-name="Path 1730" d="M120.12,131.45A39.036,39.036,0,0,0,126.3,140.4c.468.5.962,1,1.424,1.491l2.678,2.758" transform="translate(-90.574 -125.572)" fill="#407d3b" opacity="0.3"/>
    <ellipse id="Ellipse_334" data-name="Ellipse 334" cx="7.415" cy="3.698" rx="7.415" ry="3.698" transform="matrix(0.797, -0.604, 0.604, 0.797, 38.071, 16.625)" fill="#d42917"/>
    <ellipse id="Ellipse_335" data-name="Ellipse 335" cx="7.415" cy="3.698" rx="7.415" ry="3.698" transform="matrix(0.797, -0.604, 0.604, 0.797, 38.071, 16.625)" opacity="0.1"/>
    <ellipse id="Ellipse_336" data-name="Ellipse 336" cx="7.226" cy="3.4" rx="7.226" ry="3.4" transform="matrix(0.797, -0.604, 0.604, 0.797, 38.388, 16.731)" fill="#d42917"/>
    <path id="Path_1731" data-name="Path 1731" d="M165.82,146.38a33.356,33.356,0,0,0-7.643,5.276c-.433.4-.856.808-1.283,1.219l-2.354,2.287" transform="translate(-113.955 -135.714)" fill="#407d3b" opacity="0.3"/>
    <ellipse id="Ellipse_337" data-name="Ellipse 337" cx="7.415" cy="3.698" rx="7.415" ry="3.698" transform="translate(26.244 24.139) rotate(-29.9)" fill="#d42917"/>
    <ellipse id="Ellipse_338" data-name="Ellipse 338" cx="7.415" cy="3.698" rx="7.415" ry="3.698" transform="translate(26.244 24.139) rotate(-29.9)" opacity="0.1"/>
    <ellipse id="Ellipse_339" data-name="Ellipse 339" cx="7.226" cy="3.4" rx="7.226" ry="3.4" transform="translate(26.545 24.285) rotate(-29.9)" fill="#d42917"/>
    <path id="Path_1732" data-name="Path 1732" d="M116.08,182.95a33.279,33.279,0,0,1,7.835-4.987c.536-.241,1.074-.471,1.6-.7l3.024-1.283" transform="translate(-87.83 -155.82)" fill="#407d3b" opacity="0.3"/>
    <ellipse id="Ellipse_340" data-name="Ellipse 340" cx="1.594" cy="3.194" rx="1.594" ry="3.194" transform="translate(35.134 15.769) rotate(-37.72)" fill="#d42917"/>
    <ellipse id="Ellipse_341" data-name="Ellipse 341" cx="1.594" cy="3.194" rx="1.594" ry="3.194" transform="translate(35.134 15.769) rotate(-37.72)" opacity="0.1"/>
    <ellipse id="Ellipse_342" data-name="Ellipse 342" cx="1.466" cy="3.111" rx="1.466" ry="3.111" transform="translate(35.293 15.753) rotate(-37.72)" fill="#d42917"/>
    <path id="Path_1733" data-name="Path 1733" d="M141.79,159.43a14.456,14.456,0,0,1,2.585,3.053c.135.212.266.43.395.641l.722,1.216" transform="translate(-105.294 -144.578)" fill="#407d3b" opacity="0.3"/>
    <ellipse id="Ellipse_343" data-name="Ellipse 343" cx="1.594" cy="3.194" rx="1.594" ry="3.194" transform="translate(39.114 20.899) rotate(-37.72)" fill="#d42917"/>
    <ellipse id="Ellipse_344" data-name="Ellipse 344" cx="1.594" cy="3.194" rx="1.594" ry="3.194" transform="translate(39.114 20.899) rotate(-37.72)" opacity="0.1"/>
    <ellipse id="Ellipse_345" data-name="Ellipse 345" cx="1.466" cy="3.111" rx="1.466" ry="3.111" transform="translate(39.277 20.879) rotate(-37.72)" fill="#d42917"/>
    <path id="Path_1734" data-name="Path 1734" d="M154.2,175.41a14.362,14.362,0,0,1,2.585,3.053c.138.215.266.43.395.641l.725,1.216" transform="translate(-113.724 -155.433)" fill="#407d3b" opacity="0.3"/>
    <circle id="Ellipse_346" data-name="Ellipse 346" cx="0.648" cy="0.648" r="0.648" transform="translate(39.716 19.262)" fill="#d42917"/>
    <circle id="Ellipse_347" data-name="Ellipse 347" cx="0.648" cy="0.648" r="0.648" transform="translate(39.716 19.262)" fill="#407d3b" opacity="0.3"/>
    <path id="Path_1735" data-name="Path 1735" d="M987.6,681.392c-.087-.446-2.094-11.024,3.945-25.017,2.364-5.475,2.168-10.193-.574-14.019a13.6,13.6,0,0,0-4.811-4.138l.712-1.578a15.3,15.3,0,0,1,5.517,4.708c2.146,2.992,4.019,8.147.757,15.716-5.828,13.516-3.849,23.9-3.849,24.007Z" transform="translate(-678.848 -468.732)" fill="#d42917"/>
    <path id="Path_1736" data-name="Path 1736" d="M1009.635,694.391c2.431-.208,4.452-.436,4.516.321s-1.851,2.21-4.279,2.418-4.452-.237-4.516-.994S1007.207,694.6,1009.635,694.391Z" transform="translate(-691.886 -507.823)" fill="#d42917"/>
    <path id="Path_1737" data-name="Path 1737" d="M1009.635,694.391c2.431-.208,4.452-.436,4.516.321s-1.851,2.21-4.279,2.418-4.452-.237-4.516-.994S1007.207,694.6,1009.635,694.391Z" transform="translate(-691.886 -507.823)" opacity="0.1"/>
    <path id="Path_1738" data-name="Path 1738" d="M1009.863,694.3c2.367-.2,4.33-.516,4.384.128s-1.819,2-4.185,2.2-4.33-.154-4.384-.8S1007.5,694.5,1009.863,694.3Z" transform="translate(-692.105 -507.721)" fill="#d42917"/>
    <path id="Path_1739" data-name="Path 1739" d="M1005.79,696.65a34.182,34.182,0,0,0,5.513-.321c.346-.048.69-.1,1.033-.157.641-.1,1.283-.872,1.924-.962" transform="translate(-692.182 -508.517)" fill="#407d3b" opacity="0.3"/>
    <path id="Path_1740" data-name="Path 1740" d="M996.348,738.416c2.428-.205,4.452-.433,4.516.321s-1.851,2.213-4.282,2.422-4.448-.237-4.516-.994S993.92,738.625,996.348,738.416Z" transform="translate(-682.859 -537.729)" fill="#d42917"/>
    <path id="Path_1741" data-name="Path 1741" d="M996.348,738.416c2.428-.205,4.452-.433,4.516.321s-1.851,2.213-4.282,2.422-4.448-.237-4.516-.994S993.92,738.625,996.348,738.416Z" transform="translate(-682.859 -537.729)" opacity="0.1"/>
    <path id="Path_1742" data-name="Path 1742" d="M996.617,738.324c2.367-.2,4.33-.516,4.384.125s-1.819,2-4.17,2.2-4.33-.154-4.384-.8S994.25,738.527,996.617,738.324Z" transform="translate(-683.118 -537.628)" fill="#d42917"/>
    <path id="Path_1743" data-name="Path 1743" d="M992.51,740.68a34.563,34.563,0,0,0,5.513-.321c.346-.048.69-.1,1.033-.157.641-.1,1.283-.872,1.924-.962" transform="translate(-683.161 -538.425)" fill="#407d3b" opacity="0.3"/>
    <path id="Path_1744" data-name="Path 1744" d="M984.614,688.314c-2.274-.882-4.15-1.668-4.426-.962s1.155,2.643,3.425,3.528,4.339,1.026,4.615.321S986.885,689.2,984.614,688.314Z" transform="translate(-674.768 -502.994)" fill="#d42917"/>
    <path id="Path_1745" data-name="Path 1745" d="M984.614,688.314c-2.274-.882-4.15-1.668-4.426-.962s1.155,2.643,3.425,3.528,4.339,1.026,4.615.321S986.885,689.2,984.614,688.314Z" transform="translate(-674.768 -502.994)" opacity="0.1"/>
    <path id="Path_1746" data-name="Path 1746" d="M984.96,688.215c-2.213-.86-4.009-1.716-4.243-1.113s1.184,2.431,3.4,3.291,4.2,1.071,4.433.471S987.179,689.061,984.96,688.215Z" transform="translate(-675.133 -502.872)" fill="#d42917"/>
    <path id="Path_1747" data-name="Path 1747" d="M988.7,691.235a34.317,34.317,0,0,1-5.2-1.867c-.321-.144-.641-.3-.962-.443-.587-.276-.985-1.2-1.568-1.475" transform="translate(-675.322 -503.246)" fill="#407d3b" opacity="0.3"/>
    <path id="Path_1748" data-name="Path 1748" d="M972.794,732.45c-2.274-.885-4.15-1.671-4.426-.962s1.155,2.643,3.429,3.528,4.336,1.026,4.612.321S975.065,733.332,972.794,732.45Z" transform="translate(-666.739 -532.973)" fill="#d42917"/>
    <path id="Path_1749" data-name="Path 1749" d="M972.794,732.45c-2.274-.885-4.15-1.671-4.426-.962s1.155,2.643,3.429,3.528,4.336,1.026,4.612.321S975.065,733.332,972.794,732.45Z" transform="translate(-666.739 -532.973)" opacity="0.1"/>
    <path id="Path_1750" data-name="Path 1750" d="M973.16,732.3c-2.213-.859-4.009-1.713-4.243-1.113s1.183,2.431,3.4,3.294,4.2,1.071,4.432.468S975.373,733.16,973.16,732.3Z" transform="translate(-667.118 -532.817)" fill="#d42917"/>
    <path id="Path_1751" data-name="Path 1751" d="M976.886,735.375a34.687,34.687,0,0,1-5.212-1.87c-.321-.144-.641-.292-.946-.443-.584-.276-.981-1.2-1.568-1.472" transform="translate(-667.3 -533.228)" fill="#407d3b" opacity="0.3"/>
    <path id="Path_1752" data-name="Path 1752" d="M970.987,742.972c-2.316.76-4.266,1.344-4.028,2.069s2.566,1.305,4.888.545,4-1.963,3.772-2.691S973.3,742.209,970.987,742.972Z" transform="translate(-665.792 -540.553)" fill="#d42917"/>
    <path id="Path_1753" data-name="Path 1753" d="M970.987,742.972c-2.316.76-4.266,1.344-4.028,2.069s2.566,1.305,4.888.545,4-1.963,3.772-2.691S973.3,742.209,970.987,742.972Z" transform="translate(-665.792 -540.553)" opacity="0.1"/>
    <path id="Path_1754" data-name="Path 1754" d="M971.077,742.943c-2.245.741-4.169,1.222-3.983,1.838s2.457,1.126,4.715.385,3.923-1.841,3.721-2.454S973.335,742.215,971.077,742.943Z" transform="translate(-665.888 -540.515)" fill="#d42917"/>
    <path id="Path_1755" data-name="Path 1755" d="M975.641,743.66a34.137,34.137,0,0,1-5.2,1.86l-1.01.26c-.641.16-1.52-.3-2.149-.141" transform="translate(-666.023 -541.427)" fill="#407d3b" opacity="0.3"/>
    <ellipse id="Ellipse_348" data-name="Ellipse 348" cx="3.413" cy="6.848" rx="3.413" ry="6.848" transform="translate(308.834 171.5) rotate(-76.34)" fill="#d42917"/>
    <ellipse id="Ellipse_349" data-name="Ellipse 349" cx="3.413" cy="6.848" rx="3.413" ry="6.848" transform="translate(308.834 171.5) rotate(-76.34)" opacity="0.1"/>
    <ellipse id="Ellipse_350" data-name="Ellipse 350" cx="3.14" cy="6.668" rx="3.14" ry="6.668" transform="translate(309.069 171.295) rotate(-76.34)" fill="#d42917"/>
    <path id="Path_1756" data-name="Path 1756" d="M994,637.88a30.724,30.724,0,0,0,8.23,2.393c.539.077,1.078.141,1.6.205l3.008.353" transform="translate(-684.173 -469.574)" fill="#407d3b" opacity="0.3"/>
    <ellipse id="Ellipse_351" data-name="Ellipse 351" cx="6.848" cy="3.413" rx="6.848" ry="3.413" transform="matrix(0.221, -0.975, 0.975, 0.221, 304.738, 166.884)" fill="#d42917"/>
    <ellipse id="Ellipse_352" data-name="Ellipse 352" cx="6.848" cy="3.413" rx="6.848" ry="3.413" transform="matrix(0.221, -0.975, 0.975, 0.221, 304.738, 166.884)" opacity="0.1"/>
    <ellipse id="Ellipse_353" data-name="Ellipse 353" cx="6.668" cy="3.14" rx="6.668" ry="3.14" transform="matrix(0.221, -0.975, 0.975, 0.221, 305.061, 166.773)" fill="#d42917"/>
    <path id="Path_1757" data-name="Path 1757" d="M988.92,607.84a30.742,30.742,0,0,0,2.271-8.272c.07-.536.125-1.078.18-1.6l.321-3.015" transform="translate(-680.722 -440.413)" fill="#407d3b" opacity="0.3"/>
    <ellipse id="Ellipse_354" data-name="Ellipse 354" cx="6.848" cy="3.413" rx="6.848" ry="3.413" transform="matrix(0.221, -0.975, 0.975, 0.221, 301.324, 181.755)" fill="#d42917"/>
    <ellipse id="Ellipse_355" data-name="Ellipse 355" cx="6.848" cy="3.413" rx="6.848" ry="3.413" transform="matrix(0.221, -0.975, 0.975, 0.221, 301.324, 181.755)" opacity="0.1"/>
    <ellipse id="Ellipse_356" data-name="Ellipse 356" cx="6.668" cy="3.14" rx="6.668" ry="3.14" transform="matrix(0.221, -0.975, 0.975, 0.221, 301.646, 181.644)" fill="#d42917"/>
    <path id="Path_1758" data-name="Path 1758" d="M978.28,654.2a30.864,30.864,0,0,0,2.264-8.272c.067-.536.125-1.078.18-1.6l.321-3.015" transform="translate(-673.495 -471.904)" fill="#407d3b" opacity="0.3"/>
    <ellipse id="Ellipse_357" data-name="Ellipse 357" cx="3.413" cy="6.848" rx="3.413" ry="6.848" transform="translate(292.201 167.925) rotate(-76.34)" fill="#d42917"/>
    <ellipse id="Ellipse_358" data-name="Ellipse 358" cx="3.413" cy="6.848" rx="3.413" ry="6.848" transform="translate(292.201 167.925) rotate(-76.34)" opacity="0.1"/>
    <ellipse id="Ellipse_359" data-name="Ellipse 359" cx="3.14" cy="6.668" rx="3.14" ry="6.668" transform="translate(292.435 167.723) rotate(-76.34)" fill="#d42917"/>
    <path id="Path_1759" data-name="Path 1759" d="M942.11,626.74a30.717,30.717,0,0,0,8.233,2.4c.536.077,1.074.141,1.6.205l3.012.353" transform="translate(-648.926 -462.007)" fill="#407d3b" opacity="0.3"/>
    <ellipse id="Ellipse_360" data-name="Ellipse 360" cx="2.919" cy="5.853" rx="2.919" ry="5.853" transform="matrix(0.797, -0.604, 0.604, 0.797, 305.753, 170.118)" fill="#d42917"/>
    <ellipse id="Ellipse_361" data-name="Ellipse 361" cx="2.919" cy="5.853" rx="2.919" ry="5.853" transform="matrix(0.797, -0.604, 0.604, 0.797, 305.753, 170.118)" opacity="0.1"/>
    <ellipse id="Ellipse_362" data-name="Ellipse 362" cx="2.685" cy="5.703" rx="2.685" ry="5.703" transform="matrix(0.797, -0.604, 0.604, 0.797, 306.016, 170.106)" fill="#d42917"/>
    <path id="Path_1760" data-name="Path 1760" d="M988.7,638.59a26.32,26.32,0,0,0,4.169,6.033c.321.34.642.674.962,1.007l1.806,1.857" transform="translate(-680.573 -470.056)" fill="#407d3b" opacity="0.3"/>
    <ellipse id="Ellipse_363" data-name="Ellipse 363" cx="2.919" cy="5.853" rx="2.919" ry="5.853" transform="matrix(0.8, -0.6, 0.6, 0.8, 298.146, 162.359)" fill="#d42917"/>
    <ellipse id="Ellipse_364" data-name="Ellipse 364" cx="2.919" cy="5.853" rx="2.919" ry="5.853" transform="matrix(0.8, -0.6, 0.6, 0.8, 298.146, 162.359)" opacity="0.1"/>
    <ellipse id="Ellipse_365" data-name="Ellipse 365" cx="2.685" cy="5.703" rx="2.685" ry="5.703" transform="matrix(0.797, -0.604, 0.604, 0.797, 298.236, 160.377)" fill="#d42917"/>
    <path id="Path_1761" data-name="Path 1761" d="M964.44,608.26a26.218,26.218,0,0,0,4.17,6.033c.321.343.641.674.962,1.007l1.806,1.857" transform="translate(-664.094 -449.454)" fill="#407d3b" opacity="0.3"/>
    <ellipse id="Ellipse_366" data-name="Ellipse 366" cx="4.997" cy="2.492" rx="4.997" ry="2.492" transform="matrix(0.797, -0.604, 0.604, 0.797, 306.098, 166.076)" fill="#d42917"/>
    <ellipse id="Ellipse_367" data-name="Ellipse 367" cx="4.997" cy="2.492" rx="4.997" ry="2.492" transform="matrix(0.797, -0.604, 0.604, 0.797, 306.098, 166.076)" opacity="0.1"/>
    <ellipse id="Ellipse_368" data-name="Ellipse 368" cx="4.869" cy="2.29" rx="4.869" ry="2.29" transform="matrix(0.797, -0.604, 0.604, 0.797, 306.314, 166.148)" fill="#d42917"/>
    <path id="Path_1762" data-name="Path 1762" d="M995.214,618.33a22.387,22.387,0,0,0-5.151,3.557c-.292.266-.574.542-.86.818l-1.6,1.543" transform="translate(-679.826 -456.294)" fill="#407d3b" opacity="0.3"/>
    <ellipse id="Ellipse_369" data-name="Ellipse 369" cx="4.997" cy="2.492" rx="4.997" ry="2.492" transform="translate(298.123 171.141) rotate(-29.9)" fill="#d42917"/>
    <ellipse id="Ellipse_370" data-name="Ellipse 370" cx="4.997" cy="2.492" rx="4.997" ry="2.492" transform="translate(298.123 171.141) rotate(-29.9)" opacity="0.1"/>
    <ellipse id="Ellipse_371" data-name="Ellipse 371" cx="4.869" cy="2.29" rx="4.869" ry="2.29" transform="translate(298.329 171.241) rotate(-29.9)" fill="#d42917"/>
    <path id="Path_1763" data-name="Path 1763" d="M961.72,642.976A22.467,22.467,0,0,1,967,639.614c.359-.164.725-.321,1.087-.471l2.04-.863" transform="translate(-662.246 -469.846)" fill="#407d3b" opacity="0.3"/>
    <ellipse id="Ellipse_372" data-name="Ellipse 372" cx="1.074" cy="2.152" rx="1.074" ry="2.152" transform="translate(304.111 165.475) rotate(-37.72)" fill="#d42917"/>
    <ellipse id="Ellipse_373" data-name="Ellipse 373" cx="1.074" cy="2.152" rx="1.074" ry="2.152" transform="translate(304.111 165.475) rotate(-37.72)" opacity="0.1"/>
    <ellipse id="Ellipse_374" data-name="Ellipse 374" cx="0.988" cy="2.098" rx="0.988" ry="2.098" transform="translate(304.219 165.461) rotate(-37.72)" fill="#d42917"/>
    <path id="Path_1764" data-name="Path 1764" d="M979.05,627.12a9.742,9.742,0,0,1,1.742,2.059c.09.144.18.289.266.436l.488.818" transform="translate(-674.018 -462.265)" fill="#407d3b" opacity="0.3"/>
    <ellipse id="Ellipse_375" data-name="Ellipse 375" cx="1.074" cy="2.152" rx="1.074" ry="2.152" transform="translate(306.797 168.931) rotate(-37.72)" fill="#d42917"/>
    <ellipse id="Ellipse_376" data-name="Ellipse 376" cx="1.074" cy="2.152" rx="1.074" ry="2.152" transform="translate(306.797 168.931) rotate(-37.72)" opacity="0.1"/>
    <ellipse id="Ellipse_377" data-name="Ellipse 377" cx="0.988" cy="2.098" rx="0.988" ry="2.098" transform="translate(306.901 168.917) rotate(-37.72)" fill="#d42917"/>
    <path id="Path_1765" data-name="Path 1765" d="M987.41,637.89a9.66,9.66,0,0,1,1.745,2.059c.09.144.176.289.263.436l.487.818" transform="translate(-679.697 -469.581)" fill="#407d3b" opacity="0.3"/>
    <circle id="Ellipse_378" data-name="Ellipse 378" cx="0.436" cy="0.436" r="0.436" transform="translate(307.203 167.828)" fill="#d42917"/>
    <circle id="Ellipse_379" data-name="Ellipse 379" cx="0.436" cy="0.436" r="0.436" transform="translate(307.203 167.828)" fill="#407d3b" opacity="0.3"/>
    <g id="Group_3545" data-name="Group 3545" transform="translate(21.009 133.96)" opacity="0.1">
      <path id="Path_1766" data-name="Path 1766" d="M143.167,617.516a38.87,38.87,0,0,1,.09-7.46,3.2,3.2,0,0,1,.035-.343c.022-.205.048-.414.074-.625a.54.54,0,0,1,.026-.2c.029-.247.064-.5.1-.757a.081.081,0,0,1,0-.026,50.562,50.562,0,0,1,3.413-12.223l.122-.285c.042-.1.083-.2.128-.3s.051-.115.074-.173.042-.1.061-.144c.109-.263.212-.52.321-.773v-.032a16.4,16.4,0,0,0,.863-10c-.022-.09-.045-.176-.071-.263a13.166,13.166,0,0,0-1.995-4.17l-.151-.2c-.1-.138-.205-.273-.321-.4a15.487,15.487,0,0,0-3.233-3.008l-.2-.135c-.1-.071-.2-.135-.3-.192s-.17-.109-.247-.154c-.144-.09-.276-.167-.391-.234l-.192-.1c-.253-.141-.411-.212-.436-.224l-.038.087-.061.132v.048l-.032.064v.042l-.048.109v.019l-.038.09v.026l-.08.18-.164.359-.019.045-.038.08-.038.09-.087.189.122.061.071.038a.028.028,0,0,1,.019,0h.019l.038.019.074.039.221.125.141.08c.26.154.574.356.924.6l.321.241.154.115c.151.115.321.244.465.375h0l.132.119c.09.074.183.157.273.241l.042.039c.263.244.529.507.792.8a12.976,12.976,0,0,1,.962,1.18c.1.141.2.285.3.43a11.454,11.454,0,0,1,.856,1.549h0a11.114,11.114,0,0,1,.738,2.187,1.314,1.314,0,0,1,.032.154,15.305,15.305,0,0,1-1.126,8.981.157.157,0,0,1,0,.035c-.071.173-.141.346-.218.523v.022c-.019.042-.038.087-.055.128l-.225.532c-.048.112-.093.224-.138.321a52.374,52.374,0,0,0-3.374,12.188v.032c-.035.241-.071.478-.1.712v.074a.109.109,0,0,0,0,.032v.058c-.022.186-.045.372-.064.555l-.019.18a.483.483,0,0,1-.016.151q-.038.321-.067.641-.026.231-.038.452a40.154,40.154,0,0,0-.087,5.825Z" transform="translate(-125.291 -560.876)" fill="#d42917"/>
      <path id="Path_1767" data-name="Path 1767" d="M163.4,632.289c2.4-.205,4.4-.43,4.465.321s-1.831,2.187-4.234,2.393-4.4-.234-4.468-.981S161,632.494,163.4,632.289Z" transform="translate(-138.106 -599.601)" fill="#d42917"/>
      <path id="Path_1768" data-name="Path 1768" d="M163.4,632.289c2.4-.205,4.4-.43,4.465.321s-1.831,2.187-4.234,2.393-4.4-.234-4.468-.981S161,632.494,163.4,632.289Z" transform="translate(-138.106 -599.601)" fill="#d42917" opacity="0.1"/>
      <path id="Path_1769" data-name="Path 1769" d="M163.628,632.2c2.341-.2,4.285-.513,4.34.125s-1.8,1.979-4.141,2.178-4.285-.151-4.34-.789S161.287,632.4,163.628,632.2Z" transform="translate(-138.324 -599.5)" fill="#d42917"/>
      <path id="Path_1770" data-name="Path 1770" d="M159.6,634.49a34.223,34.223,0,0,0,5.452-.321l1.023-.157c.641-.1,1.267-.863,1.9-.962Z" transform="translate(-138.401 -600.253)" fill="#d42917" opacity="0.3"/>
      <path id="Path_1771" data-name="Path 1771" d="M150.242,675.849c2.4-.205,4.4-.43,4.468.321s-1.835,2.187-4.237,2.393-4.4-.234-4.477-.985S147.837,676.054,150.242,675.849Z" transform="translate(-129.159 -629.19)" fill="#d42917"/>
      <path id="Path_1772" data-name="Path 1772" d="M150.242,675.849c2.4-.205,4.4-.43,4.468.321s-1.835,2.187-4.237,2.393-4.4-.234-4.477-.985S147.837,676.054,150.242,675.849Z" transform="translate(-129.159 -629.19)" fill="#d42917" opacity="0.1"/>
      <path id="Path_1773" data-name="Path 1773" d="M150.495,675.752c2.341-.2,4.285-.51,4.34.125s-1.8,1.979-4.141,2.181-4.282-.154-4.336-.8S148.166,675.954,150.495,675.752Z" transform="translate(-129.405 -629.087)" fill="#d42917"/>
      <path id="Path_1774" data-name="Path 1774" d="M146.46,678.057a33.84,33.84,0,0,0,5.452-.321c.343-.048.683-.1,1.023-.154.641-.1,1.283-.863,1.9-.962Z" transform="translate(-129.476 -629.849)" fill="#d42917" opacity="0.3"/>
      <path id="Path_1775" data-name="Path 1775" d="M138.664,626.272c-2.245-.872-4.1-1.652-4.375-.962s1.142,2.614,3.387,3.486,4.291,1.017,4.564.321S140.909,627.148,138.664,626.272Z" transform="translate(-121.186 -594.816)" fill="#d42917"/>
      <path id="Path_1776" data-name="Path 1776" d="M138.664,626.272c-2.245-.872-4.1-1.652-4.375-.962s1.142,2.614,3.387,3.486,4.291,1.017,4.564.321S140.909,627.148,138.664,626.272Z" transform="translate(-121.186 -594.816)" fill="#d42917" opacity="0.1"/>
      <path id="Path_1777" data-name="Path 1777" d="M139.056,626.132c-2.191-.853-3.967-1.7-4.2-1.1s1.171,2.405,3.358,3.259,4.153,1.058,4.384.465S141.23,626.982,139.056,626.132Z" transform="translate(-121.578 -594.67)" fill="#d42917"/>
      <path id="Path_1778" data-name="Path 1778" d="M142.723,629.193a33.942,33.942,0,0,1-5.132-1.847l-.949-.43c-.577-.273-.962-1.183-1.552-1.456Z" transform="translate(-121.752 -595.097)" fill="#d42917" opacity="0.3"/>
      <path id="Path_1779" data-name="Path 1779" d="M126.957,669.931c-2.245-.876-4.105-1.652-4.378-.962s1.142,2.614,3.39,3.486,4.291,1.017,4.564.321S129.205,670.807,126.957,669.931Z" transform="translate(-113.231 -624.472)" fill="#d42917"/>
      <path id="Path_1780" data-name="Path 1780" d="M126.957,669.931c-2.245-.876-4.105-1.652-4.378-.962s1.142,2.614,3.39,3.486,4.291,1.017,4.564.321S129.205,670.807,126.957,669.931Z" transform="translate(-113.231 -624.472)" fill="#d42917" opacity="0.1"/>
      <path id="Path_1781" data-name="Path 1781" d="M127.326,669.792c-2.191-.853-3.967-1.7-4.2-1.1s1.167,2.405,3.358,3.259,4.153,1.058,4.384.465S129.513,670.642,127.326,669.792Z" transform="translate(-113.61 -624.326)" fill="#d42917"/>
      <path id="Path_1782" data-name="Path 1782" d="M131.061,672.833a33.942,33.942,0,0,1-5.132-1.847l-.937-.439c-.577-.273-.962-1.184-1.552-1.456Z" transform="translate(-113.839 -624.734)" fill="#d42917" opacity="0.3"/>
      <path id="Path_1783" data-name="Path 1783" d="M125.173,680.366c-2.29.754-4.218,1.331-3.983,2.046s2.543,1.283,4.833.542,3.958-1.944,3.724-2.656S127.466,679.615,125.173,680.366Z" transform="translate(-112.297 -631.997)" fill="#d42917"/>
      <path id="Path_1784" data-name="Path 1784" d="M125.173,680.366c-2.29.754-4.218,1.331-3.983,2.046s2.543,1.283,4.833.542,3.958-1.944,3.724-2.656S127.466,679.615,125.173,680.366Z" transform="translate(-112.297 -631.997)" fill="#d42917" opacity="0.1"/>
      <path id="Path_1785" data-name="Path 1785" d="M125.257,680.314c-2.245.731-4.141,1.209-3.939,1.815s2.428,1.113,4.66.382,3.881-1.822,3.682-2.428S127.49,679.58,125.257,680.314Z" transform="translate(-112.388 -631.933)" fill="#d42917"/>
      <path id="Path_1786" data-name="Path 1786" d="M129.775,681a33.534,33.534,0,0,1-5.148,1.841c-.321.09-.667.173-1,.257-.622.157-1.5-.3-2.126-.138Z" transform="translate(-112.521 -632.824)" fill="#d42917" opacity="0.3"/>
      <ellipse id="Ellipse_380" data-name="Ellipse 380" cx="3.377" cy="6.774" rx="3.377" ry="6.774" transform="translate(16.459 17.775) rotate(-76.34)" fill="#d42917"/>
      <ellipse id="Ellipse_381" data-name="Ellipse 381" cx="3.377" cy="6.774" rx="3.377" ry="6.774" transform="translate(16.459 17.775) rotate(-76.34)" fill="#d42917" opacity="0.1"/>
      <ellipse id="Ellipse_382" data-name="Ellipse 382" cx="3.105" cy="6.597" rx="3.105" ry="6.597" transform="translate(16.689 17.572) rotate(-76.34)" fill="#d42917"/>
      <path id="Path_1787" data-name="Path 1787" d="M147.91,576.38a30.471,30.471,0,0,0,8.147,2.37c.529.077,1.065.138,1.6.2l2.976.346Z" transform="translate(-130.461 -561.759)" fill="#d42917" opacity="0.3"/>
      <ellipse id="Ellipse_383" data-name="Ellipse 383" cx="6.774" cy="3.377" rx="6.774" ry="3.377" transform="matrix(0.221, -0.975, 0.975, 0.221, 12.409, 13.213)" fill="#d42917"/>
      <ellipse id="Ellipse_384" data-name="Ellipse 384" cx="6.774" cy="3.377" rx="6.774" ry="3.377" transform="matrix(0.221, -0.975, 0.975, 0.221, 12.409, 13.213)" fill="#d42917" opacity="0.1"/>
      <ellipse id="Ellipse_385" data-name="Ellipse 385" cx="6.597" cy="3.105" rx="6.597" ry="3.105" transform="matrix(0.221, -0.975, 0.975, 0.221, 12.731, 13.106)" fill="#d42917"/>
      <path id="Path_1788" data-name="Path 1788" d="M142.91,546.635a30.562,30.562,0,0,0,2.245-8.179c.067-.532.122-1.068.176-1.6l.3-2.983Z" transform="translate(-127.064 -532.883)" fill="#d42917" opacity="0.3"/>
      <ellipse id="Ellipse_386" data-name="Ellipse 386" cx="6.774" cy="3.377" rx="6.774" ry="3.377" transform="matrix(0.221, -0.975, 0.975, 0.221, 9.033, 27.922)" fill="#d42917"/>
      <ellipse id="Ellipse_387" data-name="Ellipse 387" cx="6.774" cy="3.377" rx="6.774" ry="3.377" transform="matrix(0.221, -0.975, 0.975, 0.221, 9.033, 27.922)" fill="#d42917" opacity="0.1"/>
      <ellipse id="Ellipse_388" data-name="Ellipse 388" cx="6.597" cy="3.105" rx="6.597" ry="3.105" transform="matrix(0.221, -0.975, 0.975, 0.221, 9.357, 27.818)" fill="#d42917"/>
      <path id="Path_1789" data-name="Path 1789" d="M132.38,592.5a30.379,30.379,0,0,0,2.245-8.182c.067-.532.122-1.068.176-1.6l.3-2.983Z" transform="translate(-119.912 -564.035)" fill="#d42917" opacity="0.3"/>
      <ellipse id="Ellipse_389" data-name="Ellipse 389" cx="3.377" cy="6.774" rx="3.377" ry="6.774" transform="translate(0 14.243) rotate(-76.34)" fill="#d42917"/>
      <ellipse id="Ellipse_390" data-name="Ellipse 390" cx="3.377" cy="6.774" rx="3.377" ry="6.774" transform="translate(0 14.243) rotate(-76.34)" fill="#d42917" opacity="0.1"/>
      <ellipse id="Ellipse_391" data-name="Ellipse 391" cx="3.105" cy="6.597" rx="3.105" ry="6.597" transform="translate(0.231 14.039) rotate(-76.34)" fill="#d42917"/>
      <path id="Path_1790" data-name="Path 1790" d="M96.6,565.37a30.471,30.471,0,0,0,8.147,2.37c.529.077,1.065.138,1.6.2l2.976.35Z" transform="translate(-95.607 -554.28)" fill="#d42917" opacity="0.3"/>
      <ellipse id="Ellipse_392" data-name="Ellipse 392" cx="2.887" cy="5.789" rx="2.887" ry="5.789" transform="matrix(0.797, -0.604, 0.604, 0.797, 13.422, 16.404)" fill="#d42917"/>
      <ellipse id="Ellipse_393" data-name="Ellipse 393" cx="2.887" cy="5.789" rx="2.887" ry="5.789" transform="matrix(0.797, -0.604, 0.604, 0.797, 13.422, 16.404)" fill="#d42917" opacity="0.1"/>
      <ellipse id="Ellipse_394" data-name="Ellipse 394" cx="2.656" cy="5.642" rx="2.656" ry="5.642" transform="matrix(0.797, -0.604, 0.604, 0.797, 13.681, 16.391)" fill="#d42917"/>
      <path id="Path_1791" data-name="Path 1791" d="M142.7,577.09a26.051,26.051,0,0,0,4.118,5.969c.321.321.641.667.962.994l1.786,1.838Z" transform="translate(-126.922 -562.241)" fill="#d42917" opacity="0.3"/>
      <ellipse id="Ellipse_395" data-name="Ellipse 395" cx="2.887" cy="5.789" rx="2.887" ry="5.789" transform="matrix(0.797, -0.604, 0.604, 0.797, 5.722, 6.777)" fill="#d42917"/>
      <ellipse id="Ellipse_396" data-name="Ellipse 396" cx="2.887" cy="5.789" rx="2.887" ry="5.789" transform="matrix(0.797, -0.604, 0.604, 0.797, 5.722, 6.777)" fill="#d42917" opacity="0.1"/>
      <ellipse id="Ellipse_397" data-name="Ellipse 397" cx="2.656" cy="5.642" rx="2.656" ry="5.642" transform="matrix(0.797, -0.604, 0.604, 0.797, 5.983, 6.766)" fill="#d42917"/>
      <path id="Path_1792" data-name="Path 1792" d="M118.7,547.09a25.98,25.98,0,0,0,4.118,5.966c.321.34.641.667.962,1l1.786,1.838Z" transform="translate(-110.619 -541.863)" fill="#d42917" opacity="0.3"/>
      <ellipse id="Ellipse_398" data-name="Ellipse 398" cx="4.946" cy="2.466" rx="4.946" ry="2.466" transform="matrix(0.797, -0.604, 0.604, 0.797, 13.754, 12.4)" fill="#d42917"/>
      <ellipse id="Ellipse_399" data-name="Ellipse 399" cx="4.946" cy="2.466" rx="4.946" ry="2.466" transform="matrix(0.797, -0.604, 0.604, 0.797, 13.754, 12.4)" fill="#d42917" opacity="0.1"/>
      <ellipse id="Ellipse_400" data-name="Ellipse 400" cx="4.817" cy="2.268" rx="4.817" ry="2.268" transform="matrix(0.797, -0.604, 0.604, 0.797, 13.966, 12.469)" fill="#d42917"/>
      <path id="Path_1793" data-name="Path 1793" d="M149.175,557a22.284,22.284,0,0,0-5.1,3.528c-.285.266-.568.539-.85.811l-1.568,1.527Z" transform="translate(-126.215 -548.595)" fill="#d42917" opacity="0.3"/>
      <ellipse id="Ellipse_401" data-name="Ellipse 401" cx="4.946" cy="2.466" rx="4.946" ry="2.466" transform="translate(5.866 17.41) rotate(-29.9)" fill="#d42917"/>
      <ellipse id="Ellipse_402" data-name="Ellipse 402" cx="4.946" cy="2.466" rx="4.946" ry="2.466" transform="translate(5.866 17.41) rotate(-29.9)" fill="#d42917" opacity="0.1"/>
      <ellipse id="Ellipse_403" data-name="Ellipse 403" cx="4.817" cy="2.268" rx="4.817" ry="2.268" transform="translate(6.07 17.505) rotate(-29.9)" fill="#d42917"/>
      <path id="Path_1794" data-name="Path 1794" d="M116,581.434a22.129,22.129,0,0,1,5.225-3.326c.356-.16.718-.321,1.078-.468l2.017-.85Z" transform="translate(-108.785 -562.037)" fill="#d42917" opacity="0.3"/>
      <ellipse id="Ellipse_404" data-name="Ellipse 404" cx="1.062" cy="2.13" rx="1.062" ry="2.13" transform="translate(11.808 11.82) rotate(-37.72)" fill="#d42917"/>
      <ellipse id="Ellipse_405" data-name="Ellipse 405" cx="1.062" cy="2.13" rx="1.062" ry="2.13" transform="translate(11.808 11.82) rotate(-37.72)" fill="#d42917" opacity="0.1"/>
      <ellipse id="Ellipse_406" data-name="Ellipse 406" cx="0.975" cy="2.075" rx="0.975" ry="2.075" transform="translate(11.914 11.809) rotate(-37.72)" fill="#d42917"/>
      <path id="Path_1795" data-name="Path 1795" d="M133.14,565.74a9.529,9.529,0,0,1,1.726,2.037c.09.141.176.289.263.433l.481.808Z" transform="translate(-120.428 -554.532)" fill="#d42917" opacity="0.3"/>
      <ellipse id="Ellipse_407" data-name="Ellipse 407" cx="1.062" cy="2.13" rx="1.062" ry="2.13" transform="translate(14.464 15.238) rotate(-37.72)" fill="#d42917"/>
      <ellipse id="Ellipse_408" data-name="Ellipse 408" cx="1.062" cy="2.13" rx="1.062" ry="2.13" transform="translate(14.464 15.238) rotate(-37.72)" fill="#d42917" opacity="0.1"/>
      <ellipse id="Ellipse_409" data-name="Ellipse 409" cx="0.975" cy="2.075" rx="0.975" ry="2.075" transform="translate(14.568 15.225) rotate(-37.72)" fill="#d42917"/>
      <path id="Path_1796" data-name="Path 1796" d="M141.42,576.4a9.622,9.622,0,0,1,1.726,2.033c.09.144.176.289.263.433l.481.811Z" transform="translate(-126.052 -561.773)" fill="#d42917" opacity="0.3"/>
      <circle id="Ellipse_410" data-name="Ellipse 410" cx="0.43" cy="0.43" r="0.43" transform="translate(14.864 14.153)" fill="#d42917"/>
      <circle id="Ellipse_411" data-name="Ellipse 411" cx="0.43" cy="0.43" r="0.43" transform="translate(14.864 14.153)" fill="#d42917" opacity="0.3"/>
    </g>
    <path id="Path_1797" data-name="Path 1797" d="M190.05,478.028a9.454,9.454,0,0,1,1.116,3.159c-.029.337,1.6,2.146,2.059,2.71a11.371,11.371,0,0,1,1,1.665l1.517,2.822a15.11,15.11,0,0,0,2.713-1.216l.545.061a10.884,10.884,0,0,0,1.251-.192c0,.071-.019.141-.026.209-.26,2.107-.452,3.849-.452,3.849s.513,1.863,1.228,1.283l.038-.032c.019.09.038.192.058.321a20.41,20.41,0,0,1,.362,4.384,33.821,33.821,0,0,0,.321,5.475s.994-.083,2.46-.173c.038.106.08.215.125.321h0c.141.366.3.773.462,1.177l.029.074c.022.051.042.106.064.157l.042.106.058.138.067.16.042.106.09.215a.679.679,0,0,1,.032.071c.026.058.048.119.074.176l.032.067.077.176.022.051c.1.231.2.443.3.622v.022l.08.151v.022l.08.141h0c.026.048.055.09.077.128a12.106,12.106,0,0,1,1.116,2.765l.6,3.64s.125.882.18,1.674c.019.289.029.565.022.783,0,.061,0,.186.016.366a.578.578,0,0,1,0,.077h0c.055.661.192,1.924.366,3.4.035.3.071.6.109.914h0a40.5,40.5,0,0,0,.1,5.517s-.43,6.857-.321,7.505a5.326,5.326,0,0,1-.529,1.924l-.087-.077a5.668,5.668,0,0,0-1.5,3.451c.029,1.847.173,4.346.173,4.346s.141,1.013-.173,1.283,0,1.693,0,1.693,2.688,2.463,4.946-.205a6.945,6.945,0,0,0,.26-2.508c-.016-.08-.032-.183-.051-.321a29.4,29.4,0,0,0-.257-3.188l-.263-1.924c.282-.029.712-1.552.513-1.924a5.322,5.322,0,0,1,.173-1.924l.674-2.082h0c.029.067.058.135.087.208v.029a.745.745,0,0,1,.035.09v.029l.125.321h0l.038.112v.022c.042.115.08.234.115.353h0l.032.109v.026c.032.115.061.225.083.321v.022l.019.093v.128a.09.09,0,0,1,0,.029,1.244,1.244,0,0,1,0,.151.2.2,0,0,1,0,.045v.266a4.84,4.84,0,0,0,.205,2.2v.032a.239.239,0,0,0,.035.09.278.278,0,0,0,.022.055q.023.059.051.115h0a1.387,1.387,0,0,0,.125.2h0l-.087,7.377a3.518,3.518,0,0,0,3.49,1.283c2.431-.346,2.088-2.992,1.745-3.416a7.408,7.408,0,0,1-.513-2.284s-.43-3.05-.715-4.15a1.312,1.312,0,0,0-.667-.962c-.109-.346-.263-.667-.276-.715a8.98,8.98,0,0,1-.622-1.475,1.158,1.158,0,0,1-.038-.529,1.733,1.733,0,0,0,0-.346h0v-.311h0c-.074-1.847-.507-6.947-.741-9.6h0a24.927,24.927,0,0,0,.568-3.679,34.221,34.221,0,0,1,.228-4.2,22.959,22.959,0,0,1,1.087-4.939,45.956,45.956,0,0,0,1.738-5.632c.032-.119.061-.234.09-.346a3.946,3.946,0,0,0,1.546-.369s-.372-3.275.542-4.968c.641-1.161,1.068-6.306,1.081-9.686v-.491c.76.641,1.283,1.514,1.469,1.427a41.6,41.6,0,0,0,5.366-3.313c2.085-1.693-3.746-11.206-4.4-11.938s-2.011-9.2-2.011-9.2a1.661,1.661,0,0,0,.8.564,7.134,7.134,0,0,1,2.117,1.418c.888.741,4.946,0,4.946,0a3.214,3.214,0,0,0,3.49-2.37,23.338,23.338,0,0,0,1.517-4.6c.058-1.212,2.245-6.094,2.245-6.094a4.743,4.743,0,0,0-1.969-1.77,1.735,1.735,0,0,1,.712-1.107c.914-.4,11.094-4.17,7.489-5.452s-9.15,2.887-9.15,2.887-.285.1-.741,1.026c-.241.491-.552,1.325-.8,2-.026.071-.051.141-.074.208l-.16.016a19.72,19.72,0,0,0-1.315,3.528,23.136,23.136,0,0,1-1.6,3.923s-.8.821-.513,1.469-.645.5-.645.5l-1.26-.988a7.6,7.6,0,0,0-1.6-.818,4.468,4.468,0,0,1-1.4-1.042s-1.03-.68-.943-.792-.571-.641-.943-.818-.545-.536-.914-1.212-.946-.17-1.232-.282a31.13,31.13,0,0,0-4.2.423,3.7,3.7,0,0,1-2.29-.34,1.719,1.719,0,0,0-1.447-.16,7.639,7.639,0,0,1-.337-.872,1.317,1.317,0,0,1-.042-.154,6.152,6.152,0,0,0,3.72-5.632,6.068,6.068,0,0,0-1.523-4.032c-.087-.1-.176-.192-.269-.285h0c.346-.167.85-.529.856-.94a.593.593,0,0,0-.167-.423c-.128-.144-.321-.218-.455-.359a.792.792,0,0,1-.186-.568c0-.26.067-.539.071-.808a1.166,1.166,0,0,0-.032-.321,1.238,1.238,0,0,0-1.052-.824.08.08,0,0,0,0,.022,2,2,0,0,0-.568-.026c-.661.071-1.283.369-1.924.443a8.473,8.473,0,0,1-3.012-.584,2.894,2.894,0,0,0-2.887.487c-.68.757-.641,2.04-1.495,2.585a9.635,9.635,0,0,1-1.321.471,2.72,2.72,0,0,0-1.119,1.052,5.452,5.452,0,0,0-.844,3.528c.071.667.266,1.318.346,1.985a5.773,5.773,0,0,1-.138,2.082,2.193,2.193,0,0,1-1.283,1.661,2.178,2.178,0,0,0-.475.16c-.4.247-.35.834-.247,1.283l.423,1.883c-.4.3-1.02.173-1.408.487a1.165,1.165,0,0,0-.321.51,2.758,2.758,0,0,0,.641,2.861.456.456,0,0,1-.035.106c-.01.035-.045.16-.064.247-.343,1.639-.228,1.835-.459,2.117h0a19.49,19.49,0,0,1-1.4,2.11,2.277,2.277,0,0,0-.516,1.357,17.97,17.97,0,0,1-2.245,2.794c-.529.282-1.373,2.2-1.373,2.2s-1.344.876-1.344,1.863a16.268,16.268,0,0,1-.257,2.454A6.846,6.846,0,0,0,190.05,478.028Zm4.914-1.523c.257-.4,0-1.158,0-1.158a12.28,12.28,0,0,0,1.924-3.474,3.767,3.767,0,0,1,1.774-2.114h0s.8-.321.856,0,.2.985.2.985-.144,1.639.459,2.287.693,3.387.693,3.387.962,2.71.507,3.557a21.973,21.973,0,0,0-.661,3.551c-.225-.035-.436-.061-.641-.077A8.828,8.828,0,0,0,198.133,482c-.661-.225-1.283-2.088-1.318-2.511s-.6-1.835-1.2-2.088S194.714,476.9,194.964,476.5Z" transform="translate(-137.553 -334.344)" fill="url(#linear-gradient-3)"/>
    <path id="Path_1798" data-name="Path 1798" d="M328.212,479.3a4.612,4.612,0,0,0-4.622-2.168v3.3h2l1.578-.407Z" transform="translate(-228.785 -360.35)" fill="#4c4981"/>
    <path id="Path_1799" data-name="Path 1799" d="M328.212,479.3a4.612,4.612,0,0,0-4.622-2.168v3.3h2l1.578-.407Z" transform="translate(-228.785 -360.35)" opacity="0.1"/>
    <path id="Path_1800" data-name="Path 1800" d="M323.17,464.565l2.45,1.719s.022-.346.083-.815c.122-.888.4-2.223.988-2.482.9-.395,10.931-4.17,7.377-5.436s-9.013,2.887-9.013,2.887-.282.1-.731,1.026c-.237.488-.545,1.321-.783,2C323.327,464.078,323.17,464.565,323.17,464.565Z" transform="translate(-228.5 -346.919)" fill="#ae6e79"/>
    <path id="Path_1801" data-name="Path 1801" d="M231.815,374.862l-.279-.131-.786.895.641,1.366,1.094-.436-.253-1.094Z" transform="translate(-156.741 -254.569)" fill="#4c4981"/>
    <path id="Path_1802" data-name="Path 1802" d="M267.377,737.607s.706-.087.988,1.013.7,4.141.7,4.141a7.518,7.518,0,0,0,.507,2.28c.337.42.677,3.073-1.719,3.409a3.459,3.459,0,0,1-3.435-1.283l.083-7.377Z" transform="translate(-188.593 -537.314)" fill="#444053"/>
    <path id="Path_1803" data-name="Path 1803" d="M244.179,738.64a5.7,5.7,0,0,0-1.479,3.445c.029,1.841.17,4.336.17,4.336s.138,1.013-.17,1.283,0,1.69,0,1.69,2.649,2.46,4.872-.208a6.955,6.955,0,0,0,.253-2.5c-.183-.981-.674-5.4-.674-5.4Z" transform="translate(-173.746 -538.017)" fill="#444053"/>
    <path id="Path_1804" data-name="Path 1804" d="M236,630.373a47.559,47.559,0,0,0,2.171,5.241,11.387,11.387,0,0,1,1.1,2.758l.581,3.634a20.234,20.234,0,0,1,.2,2.454c-.029.815,1.466,12.73,1.466,12.73l2.367,3.015s1.042,2.114.872,2.986a4.434,4.434,0,0,0,.449,2.7s.058,2.761.141,3.38-.321,2.367,0,2.675,4.452.17,4.564-.321a15.335,15.335,0,0,0-.507-2.957l-.366-2.367s-.734-1.283-.564-1.719-.321-1.408-.337-1.491-.789-1.466-.641-2-.876-11.886-.876-11.886l-2.887-20.366Z" transform="translate(-169.288 -463.434)" fill="#ae6e79"/>
    <path id="Path_1805" data-name="Path 1805" d="M236,630.373s.231.641.548,1.482a28.932,28.932,0,0,0,1.623,3.759,11.629,11.629,0,0,1,1.1,2.758l.581,3.634a20.223,20.223,0,0,1,.2,2.45c0,.321.215,2.38.494,4.75.427,3.624.962,7.983.962,7.983l2.367,3.015s.119.241.269.593a5.569,5.569,0,0,1,.6,2.393,4.433,4.433,0,0,0,.449,2.7s.058,2.761.141,3.381-.321,2.364,0,2.675,4.452.17,4.564-.321a15.331,15.331,0,0,0-.507-2.957l-.366-2.367s-.731-1.283-.564-1.719-.321-1.408-.337-1.491-.789-1.466-.641-2c.106-.407-.455-7.082-.728-10.244-.087-.994-.144-1.642-.144-1.642l-2.5-17.518-.2-1.414-.205-1.434Z" transform="translate(-169.288 -463.434)" opacity="0.1"/>
    <path id="Path_1806" data-name="Path 1806" d="M243.87,675.577c-.029.321,3.971.76,4.542.423s0-4.535,0-4.535l-.26-1.924c.279-.029.7-1.549.507-1.924a5.4,5.4,0,0,1,.17-1.924l.664-2.078.4-1.283a59.352,59.352,0,0,0,2.2-8.7,25.15,25.15,0,0,0,.558-3.669,34.831,34.831,0,0,1,.225-4.2,23.183,23.183,0,0,1,1.071-4.93,46.626,46.626,0,0,0,1.713-5.622c.253-.962.43-1.674.43-1.674s-4.259-.356-6.838-.481c-1.19-.058-2.024-.064-1.924.032a3.5,3.5,0,0,1,.115,1.36,34.807,34.807,0,0,1-.564,6.245,21.711,21.711,0,0,0-.622,5.436,17.317,17.317,0,0,1,.115,2.816,12.508,12.508,0,0,0-.494,3.06,41.194,41.194,0,0,0,.1,5.5s-.42,6.848-.321,7.492-.9,2.678-.9,3.073-.282,3.069-.282,3.069S243.911,675.266,243.87,675.577Z" transform="translate(-174.634 -466.272)" fill="#ae6e79"/>
    <path id="Path_1807" data-name="Path 1807" d="M236.93,483.923l.488.52.321.34,1.844,1.982,4.747.536,2.527-.677.641-.167s0-1.283-.115-2.8c-.16-1.956-.545-4.33-1.463-4.978a3.637,3.637,0,0,1-1.074-1.357,7.7,7.7,0,0,1-.459-1.139c-.019-.051-.032-.1-.048-.147a12.7,12.7,0,0,1-.449-2.088s-.609-.321-1.45-.731c-2.207-1.026-6.014-2.45-4.689.731a11.784,11.784,0,0,1,.5,1.427c.019.071.038.141.055.212a4.609,4.609,0,0,1-.18,3.432h0a2.364,2.364,0,0,1-.189.3,1.559,1.559,0,0,1-.321.321l-.548,3.48-.045.289Z" transform="translate(-169.92 -356.896)" fill="#ae6e79"/>
    <path id="Path_1808" data-name="Path 1808" d="M238.9,474.47c.25.6-.122-.491,0,0,1,.715,3.371,2.749,4.7,2.749a3.63,3.63,0,0,0,1.924-.51,12.62,12.62,0,0,1-.5-2.245S237.069,470.076,238.9,474.47Z" transform="translate(-171.072 -357.248)" opacity="0.1"/>
    <path id="Path_1809" data-name="Path 1809" d="M233.17,454.035a6.136,6.136,0,0,0,5.5,6.094,6.054,6.054,0,0,0,.641.035,6.142,6.142,0,1,0-6.139-6.141Z" transform="translate(-167.366 -340.513)" fill="#ae6e79"/>
    <path id="Path_1810" data-name="Path 1810" d="M230.43,519.8l.872,2.28s.715.032,1.825.067c3.746.119,12,.269,12.374-.686a2.377,2.377,0,0,0,.128-.76,14.788,14.788,0,0,0-.641-3.721s-.395-4.49-.395-4.7.343-3.384.343-3.384l-.674-2.534-1.889-1.315s-.847,1.3-1.353,1.408a3.567,3.567,0,0,0-1.18.734s-1.661,1.013-2.2.449-4.705-3.041-4.705-3.041l-2.2,2.422Z" transform="translate(-165.505 -379.041)" opacity="0.1"/>
    <path id="Path_1811" data-name="Path 1811" d="M230.43,520.871l.872,2.284s.715.032,1.825.064h.109c.478,0,1.026.032,1.6.045a70.34,70.34,0,0,0,9.224-.228c.805-.115,1.331-.279,1.421-.507a1.719,1.719,0,0,0,.1-.42,2.794,2.794,0,0,0,.029-.321,14.755,14.755,0,0,0-.641-3.72s-.395-4.509-.395-4.705.337-3.352.337-3.352l-.674-2.537-1.3-.908-.59-.414a8.468,8.468,0,0,1-.641.85,1.707,1.707,0,0,1-.706.558,3.526,3.526,0,0,0-1.18.731s-1.661,1.017-2.2.452a42.389,42.389,0,0,0-4.115-2.688l-.59-.356-.3.321-1.9,2.1Z" transform="translate(-165.505 -379.789)" fill="#fff"/>
    <path id="Path_1812" data-name="Path 1812" d="M323.17,477.6l2.45,1.719s.022-.346.083-.815a4.958,4.958,0,0,1-2.159-2C323.327,477.113,323.17,477.6,323.17,477.6Z" transform="translate(-228.5 -359.954)" opacity="0.1"/>
    <path id="Path_1813" data-name="Path 1813" d="M293.04,483.9l.536-.141a4.463,4.463,0,0,0,1.379,1.042,7.562,7.562,0,0,1,1.578.818l1.238.985s.93.141.641-.507.51-1.466.51-1.466a23.34,23.34,0,0,0,1.575-3.913,20.128,20.128,0,0,1,1.283-3.528s1.636,3.182,4.622,2.168c0,0-2.171,4.872-2.226,6.094a23.1,23.1,0,0,1-1.495,4.593,3.172,3.172,0,0,1-3.435,2.364s-4,.744-4.872,0a6.929,6.929,0,0,0-2.085-1.414,1.636,1.636,0,0,1-.789-.565v-3.358Z" transform="translate(-206.987 -360.423)" fill="#3f3d56"/>
    <path id="Path_1814" data-name="Path 1814" d="M311.076,508s-.7,2.62-.253,2.9Z" transform="translate(-220.011 -381.351)" opacity="0.1"/>
    <path id="Path_1815" data-name="Path 1815" d="M238.84,557.263c3.746.122,12.005.269,12.374-.686a2.34,2.34,0,0,0,.128-.757l-12.242.641Z" transform="translate(-171.217 -413.833)" opacity="0.1"/>
    <path id="Path_1816" data-name="Path 1816" d="M236,630.339s.231.641.548,1.485c1.556-.1,3.615-.2,5.568-.208.693,0,1.37,0,2.008.023a15.126,15.126,0,0,1,3.284.362,8.661,8.661,0,0,0,2.925.378c.253-.962.43-1.674.43-1.674s-4.259-.356-6.838-.481l-.205-1.434Z" transform="translate(-169.288 -463.4)" opacity="0.1"/>
    <path id="Path_1817" data-name="Path 1817" d="M225.69,571.083l.478,1.013s.067.3.151.783a20.32,20.32,0,0,1,.359,4.372A33.459,33.459,0,0,0,227,582.7s10.366-.872,13.407,0,4.538,0,4.538,0-.369-3.268.532-4.955c.616-1.158,1.049-6.3,1.065-9.67a8.516,8.516,0,0,0-.276-2.98c-.619-.76-3.265-8.368-3.265-8.368l-.606.032-1.6.087-9.167.484-1.44.074-.151.465Z" transform="translate(-162.285 -414.452)" fill="#65617d"/>
    <path id="Path_1818" data-name="Path 1818" d="M211.283,582.453l-.083.9s4.538-1.479,4.311-3.3,0-1.6,0-1.6l-3.65.321Z" transform="translate(-152.442 -429.202)" fill="#4c4981"/>
    <path id="Path_1819" data-name="Path 1819" d="M211.283,582.453l-.083.9s4.538-1.479,4.311-3.3,0-1.6,0-1.6l-3.65.321Z" transform="translate(-152.442 -429.202)" opacity="0.1"/>
    <path id="Path_1820" data-name="Path 1820" d="M299.094,508.765a4.034,4.034,0,0,1-1.6.831,1.045,1.045,0,0,0,.471-.221c.321-.231.641-.481.946-.728a3,3,0,0,1,.879-.606,4.809,4.809,0,0,1-.693.725Z" transform="translate(-211.056 -381.378)" opacity="0.1"/>
    <path id="Path_1821" data-name="Path 1821" d="M301.29,511.616a2.048,2.048,0,0,0-.35.555,2.27,2.27,0,0,0-.1.722,2.244,2.244,0,0,0,.125,1.023l.738-1.754c.125-.3.253-.6.407-.882.064-.125.484-.641.436-.741C302.41,510.237,301.428,511.449,301.29,511.616Z" transform="translate(-213.323 -383.043)" opacity="0.1"/>
    <path id="Path_1822" data-name="Path 1822" d="M236.188,543a2.335,2.335,0,0,1-1.328-.616c.751.093,1.459.388,2.2.542a3.259,3.259,0,0,0,2.043-.189A5.009,5.009,0,0,1,236.188,543Z" transform="translate(-168.514 -404.704)" opacity="0.1"/>
    <path id="Path_1823" data-name="Path 1823" d="M245.55,523.509a.51.51,0,0,0,.382-.1q.844-.481,1.661-1.007a10.139,10.139,0,0,0,1.629-1.126A8.281,8.281,0,0,1,245.55,523.509Z" transform="translate(-175.775 -390.372)" opacity="0.1"/>
    <path id="Path_1824" data-name="Path 1824" d="M237.29,545.673a3.5,3.5,0,0,1-.879-.067,1.187,1.187,0,0,1-.722-.478.4.4,0,0,1,.3.051,5.2,5.2,0,0,0,2.829.337,4.046,4.046,0,0,1-1.533.157Z" transform="translate(-169.077 -406.564)" opacity="0.1"/>
    <path id="Path_1825" data-name="Path 1825" d="M257.32,587.114a9.068,9.068,0,0,0,1.8.353,10.561,10.561,0,0,0,1.424-.026l2.309-.147,1.155-.074c.135,0,.693,0,.417-.273-.138-.135-.908-.048-1.107-.055-.382,0-.767-.019-1.148-.022q-1.145,0-2.29.048C259.023,586.957,258.18,587.024,257.32,587.114Z" transform="translate(-183.77 -434.925)" opacity="0.1"/>
    <path id="Path_1826" data-name="Path 1826" d="M265.64,590.735a9.632,9.632,0,0,1,1.3.266,8.375,8.375,0,0,0,1.36.055,7.625,7.625,0,0,0,2.62-.536C269.158,590.61,267.4,590.674,265.64,590.735Z" transform="translate(-189.422 -437.404)" opacity="0.1"/>
    <path id="Path_1827" data-name="Path 1827" d="M273.61,594.851a3.987,3.987,0,0,0-.5.138,5.85,5.85,0,0,1-2.989-.208,1.793,1.793,0,0,0,1.135.641,5.312,5.312,0,0,0,2.213.08c.231-.045.808-.128.927-.369C274.572,594.748,273.834,594.8,273.61,594.851Z" transform="translate(-192.465 -440.298)" opacity="0.1"/>
    <path id="Path_1828" data-name="Path 1828" d="M246.59,599.53a8.145,8.145,0,0,0-.863.224,7.333,7.333,0,0,1-3.329-.353,15.471,15.471,0,0,0-4.028-.375,3.566,3.566,0,0,1,.866.286c.321.093.625.18.94.26a18.9,18.9,0,0,0,1.883.366,19.449,19.449,0,0,0,3.849.17,5.686,5.686,0,0,0,2.12-.273,2.355,2.355,0,0,0-1.437-.3Z" transform="translate(-170.898 -443.174)" opacity="0.1"/>
    <path id="Path_1829" data-name="Path 1829" d="M261.808,489.529a14.782,14.782,0,0,0,.366,3.778c.131.369.34,1.049.564,1.809.25.847.516,1.793.725,2.527l.346,1.241s.962,7.749,1.2,11.44v.192a4.086,4.086,0,0,0,.071.642c.545,3.666,3.711,9.324,4.773,9.776a3.209,3.209,0,0,1,.895.613,8.516,8.516,0,0,0-.276-2.98c-.619-.76-3.265-8.368-3.265-8.368l-.606.032a2.8,2.8,0,0,0,.029-.321,14.755,14.755,0,0,0-.641-3.721s-.395-4.509-.395-4.705.337-3.352.337-3.352l-.674-2.537-1.3-.908c-.16-1.956-.545-4.33-1.463-4.978a3.637,3.637,0,0,1-1.074-1.357c-.18.026.151-.135.151-.135Z" transform="translate(-186.517 -367.915)" opacity="0.1"/>
    <path id="Path_1830" data-name="Path 1830" d="M261.2,487.58a1.687,1.687,0,0,1,1.427.16,3.6,3.6,0,0,0,2.245.34,30.154,30.154,0,0,1,4.141-.423c.292.112.844-.395,1.209.282s.536,1.042.9,1.209,1.014.706.93.818.93.789.93.789l-2.056,6.674s1.325,8.451,1.973,9.186,6.392,10.225,4.336,11.915a41.313,41.313,0,0,1-5.154,3.464c-.225.112-1.042-1.408-2.168-1.889s-4.609-6.816-4.837-10.421-1.212-11.633-1.212-11.633-1.209-4.394-1.633-5.578a14.782,14.782,0,0,1-.366-3.778Z" transform="translate(-186.406 -367.419)" fill="#3f3d56"/>
    <path id="Path_1831" data-name="Path 1831" d="M225.69,528.778l.478,1.013s.067.3.151.783a.44.44,0,0,0,.244-.106c.706-.565,4.846-4.811,5.042-8.592.144-2.784.077-5.183.032-6.251,0-.337-.029-.539-.029-.584h0s-3.207-3.887-2.845-5.266,1.2-8.772,1.2-8.772l.125-.962.212-1.633.513-3.958-.529.125a1.559,1.559,0,0,1-.321.321l-.548,3.48-1.9,2.1-.321,12.759.872,2.284s.715.032,1.825.064h.109Z" transform="translate(-162.285 -372.147)" opacity="0.1"/>
    <path id="Path_1832" data-name="Path 1832" d="M215.465,507.335s.792-.321.847,0,.2.985.2.985-.132,1.649.449,2.29.7,3.371.7,3.371.962,2.7.5,3.551a23.551,23.551,0,0,0-.67,3.685c-.16,1.148-.321,2.418-.462,3.573-.253,2.1-.446,3.849-.446,3.849s.507,1.86,1.212,1.283,4.846-4.811,5.042-8.592c.138-2.649.083-4.955.035-6.094-.019-.481-.035-.754-.035-.754s-3.207-3.887-2.845-5.266,1.2-8.753,1.2-8.753l.148-1.142.157-1.225.035-.269.51-3.926h0a17.8,17.8,0,0,0-3.666,1.151,12.705,12.705,0,0,1-2.986,1.014,2.245,2.245,0,0,0-1.6,1.642,2.518,2.518,0,0,0-.064.247c-.337,1.636-.225,1.831-.452,2.114S215.465,507.335,215.465,507.335Z" transform="translate(-153.837 -371.773)" fill="#3f3d56"/>
    <path id="Path_1833" data-name="Path 1833" d="M225,582.663c1.158-.228,2.861-.76,2.822-1.924-.035-1.1-1.36-1.5-2.361-1.639C225.292,580.239,225.132,581.509,225,582.663Z" transform="translate(-161.816 -429.647)" opacity="0.1"/>
    <path id="Path_1834" data-name="Path 1834" d="M213.815,581.535c.045.1.237.186.491.26a13.16,13.16,0,0,0,1.876.3s3.916-.321,3.849-2.085c-.038-1.283-1.809-1.6-2.8-1.69-.391-.032-.661-.026-.661-.026S213.645,581.169,213.815,581.535Z" transform="translate(-154.214 -429.102)" fill="#ae6e79"/>
    <path id="Path_1835" data-name="Path 1835" d="M213.815,581.535c.045.1.237.186.491.26,1.023-1.366,2.447-3.118,3.143-3.271,0,0-.08-.08-.212-.2-.391-.032-.661-.026-.661-.026S213.645,581.169,213.815,581.535Z" transform="translate(-154.214 -429.102)" opacity="0.1"/>
    <path id="Path_1836" data-name="Path 1836" d="M199.543,512.6l-1.155.17a20,20,0,0,1-1.382,2.11,2.3,2.3,0,0,0-.507,1.354,17.162,17.162,0,0,1-2.226,2.787c-.536.279-1.35,2.2-1.35,2.2s-1.325.876-1.325,1.86a16.358,16.358,0,0,1-.253,2.45,6.944,6.944,0,0,0,.76,2.762,9.584,9.584,0,0,1,1.1,3.156c-.026.34,1.575,2.139,2.027,2.7a11.177,11.177,0,0,1,.985,1.661l1.495,2.816s3.153-4.647,4.311-4.9a8.707,8.707,0,0,0-1.944-1.466c-.661-.224-1.283-2.085-1.283-2.5a3.322,3.322,0,0,0-1.184-2.085c-.59-.253-.9-.507-.641-.9s0-1.155,0-1.155a12.076,12.076,0,0,0,1.886-3.467,3.7,3.7,0,0,1,1.748-2.11l.872-2.143Z" transform="translate(-138.954 -384.475)" fill="#3f3d56"/>
    <path id="Path_1837" data-name="Path 1837" d="M199.031,543.563a3.627,3.627,0,0,0-2.271-.863,2.781,2.781,0,0,1,1.485.581,3.284,3.284,0,0,1,.414.526c.135.189,1.222,1.575,1.4,1.357C200.311,544.839,199.249,543.758,199.031,543.563Z" transform="translate(-142.634 -404.921)" opacity="0.1"/>
    <path id="Path_1838" data-name="Path 1838" d="M208.7,531.713a.962.962,0,0,1-.805-.571,3.189,3.189,0,0,1-.25-1,14.726,14.726,0,0,0-.35-1.713,1.119,1.119,0,0,1-.058-.356,1.02,1.02,0,0,1,.109-.343,2.3,2.3,0,0,1,.247-.513,3.118,3.118,0,0,1,.353,1.074c.106.385.205.767.3,1.155C208.292,529.641,208.674,531.713,208.7,531.713Z" transform="translate(-149.752 -394.406)" opacity="0.1"/>
    <path id="Path_1839" data-name="Path 1839" d="M214.91,466.475a2.417,2.417,0,0,0,.388.4c.452.366,1.071.674,1.129,1.251a1.4,1.4,0,0,0,.067.558c.148.25.513.231.8.18a1.372,1.372,0,0,0,.674-.247c.3-.26.321-.718.561-1.042a1.418,1.418,0,0,1,1.142-.51c.43-.016.86.08,1.283.1a3.56,3.56,0,0,0,.824-.058,2.687,2.687,0,0,0,.269-.055,3.527,3.527,0,0,0,.561-.192,2.326,2.326,0,0,0,.273-.128,3.672,3.672,0,0,0,.8-.552,1.979,1.979,0,0,0,.738-1.495,9.517,9.517,0,0,0-.241-1.026,3.22,3.22,0,0,1,1.206-2.646c.285-.282.59-.558.876-.847a4.24,4.24,0,0,0,1.03-1.469,4.471,4.471,0,0,0,.186-1.835,12.051,12.051,0,0,1-.055-1.892c.212-2.245,2.123-3.955,4.035-4.888l.083-.045a6.139,6.139,0,1,0-8.256,8.98c.019.071.038.141.055.212a4.609,4.609,0,0,1-.18,3.432h0a17.807,17.807,0,0,0-3.666,1.151,12.706,12.706,0,0,1-2.986,1.013A2.245,2.245,0,0,0,214.91,466.475Z" transform="translate(-154.962 -340.542)" opacity="0.1"/>
    <path id="Path_1840" data-name="Path 1840" d="M230.355,442.635c-.128-.144-.321-.218-.446-.359-.4-.433,0-1.139-.148-1.71a1.411,1.411,0,0,0-1.584-.844c-.651.067-1.257.366-1.908.439a8.3,8.3,0,0,1-2.967-.581,2.851,2.851,0,0,0-2.851.484c-.68.754-.641,2.037-1.475,2.582a9.76,9.76,0,0,1-1.3.468,2.739,2.739,0,0,0-1.1,1.052,5.513,5.513,0,0,0-.831,3.528c.071.667.263,1.318.34,1.985a5.8,5.8,0,0,1-.135,2.075,2.191,2.191,0,0,1-1.254,1.658,2.125,2.125,0,0,0-.468.16c-.4.247-.343.834-.244,1.283l.42,1.879c-.395.3-1.007.173-1.389.488a1.161,1.161,0,0,0-.321.507,2.771,2.771,0,0,0,.824,3.044c.449.366,1.071.674,1.129,1.251a1.325,1.325,0,0,0,.067.555c.148.253.51.234.8.183a1.4,1.4,0,0,0,.67-.25c.321-.257.321-.718.561-1.042a1.427,1.427,0,0,1,1.142-.51c.433,0,.86.083,1.283.1a3.814,3.814,0,0,0,2.723-.981,1.976,1.976,0,0,0,.738-1.5,8.913,8.913,0,0,0-.241-1.023,3.248,3.248,0,0,1,1.206-2.649A7.24,7.24,0,0,0,225.5,452.6c.433-1.174,0-2.482.128-3.727.212-2.245,2.123-3.955,4.038-4.891C230.124,443.755,230.849,443.2,230.355,442.635Z" transform="translate(-153.347 -334.768)" fill="#444053"/>
    <path id="Path_1841" data-name="Path 1841" d="M219.769,462.609c.321-.257.321-.718.561-1.042a1.427,1.427,0,0,1,1.142-.51c.433,0,.86.08,1.283.1a3.807,3.807,0,0,0,2.723-.985,1.979,1.979,0,0,0,.738-1.495,9.7,9.7,0,0,0-.241-1.026,3.22,3.22,0,0,1,1.206-2.646,7.09,7.09,0,0,0,1.905-2.316c.436-1.171,0-2.479.131-3.724.212-2.245,2.123-3.958,4.035-4.891.449-.218,1.171-.776.677-1.337-.125-.144-.321-.218-.446-.359-.4-.433,0-1.142-.148-1.71a.882.882,0,0,0-.144-.321,1.215,1.215,0,0,1,1.039.821c.141.571-.253,1.283.148,1.71.128.141.321.215.446.359.494.564-.231,1.119-.677,1.337-1.924.933-3.826,2.649-4.038,4.891-.119,1.244.3,2.566-.128,3.724a7.082,7.082,0,0,1-1.908,2.316,3.232,3.232,0,0,0-1.206,2.649,8.921,8.921,0,0,1,.241,1.023,1.969,1.969,0,0,1-.738,1.495,3.8,3.8,0,0,1-2.723.985c-.433-.022-.86-.115-1.283-.1a1.427,1.427,0,0,0-1.142.51c-.231.321-.257.786-.561,1.042a1.4,1.4,0,0,1-.67.25c-.289.051-.641.071-.8-.183a.642.642,0,0,1-.064-.321A1.315,1.315,0,0,0,219.769,462.609Z" transform="translate(-157.826 -335.398)" opacity="0.1"/>
  </g>
</svg>
