<svg xmlns="http://www.w3.org/2000/svg" xmlns:xlink="http://www.w3.org/1999/xlink" width="369.922" height="155.358" viewBox="0 0 369.922 155.358">
  <defs>
    <linearGradient id="linear-gradient" x1="-52.727" y1="1" x2="-52.727" gradientUnits="objectBoundingBox">
      <stop offset="0" stop-color="gray" stop-opacity="0.251"/>
      <stop offset="0.54" stop-color="gray" stop-opacity="0.122"/>
      <stop offset="1" stop-color="gray" stop-opacity="0.102"/>
    </linearGradient>
  </defs>
  <g id="undraw_online_friends_x73e" transform="translate(0 0.059)">
    <ellipse id="Ellipse_219" data-name="Ellipse 219" cx="184.961" cy="6.6" rx="184.961" ry="6.6" transform="translate(0 142.098)" fill="#3f3d56"/>
    <path id="Path_1494" data-name="Path 1494" d="M1039.744,536.021a7.775,7.775,0,0,0,1.028-3.941c0-3.561-2.2-6.449-4.928-6.449s-4.925,2.888-4.925,6.449a7.775,7.775,0,0,0,1.028,3.941,8.071,8.071,0,0,0,0,7.882,8.065,8.065,0,0,0,0,7.879,8.071,8.071,0,0,0,0,7.883,7.776,7.776,0,0,0-1.028,3.941c0,3.561,2.2,6.449,4.925,6.449s4.928-2.888,4.928-6.449a7.775,7.775,0,0,0-1.028-3.941,8.071,8.071,0,0,0,0-7.882,8.065,8.065,0,0,0,0-7.879A8.071,8.071,0,0,0,1039.744,536.021Z" transform="translate(-710.523 -424.23)" fill="#3f3d56"/>
    <ellipse id="Ellipse_220" data-name="Ellipse 220" cx="4.925" cy="6.449" rx="4.925" ry="6.449" transform="translate(320.384 93.518)" fill="#3f3d56"/>
    <ellipse id="Ellipse_221" data-name="Ellipse 221" cx="4.925" cy="6.449" rx="4.925" ry="6.449" transform="translate(320.384 85.635)" fill="#3f3d56"/>
    <path id="Path_1495" data-name="Path 1495" d="M976.86,241.016a23.716,23.716,0,0,1-1.835-2.7l12.946-2.125-14,.1a23.642,23.642,0,0,1-.449-18.7l18.782,9.743L974.98,214.609a23.6,23.6,0,1,1,38.972,26.4,23.289,23.289,0,0,1,2.69,4.306l-16.8,8.734,17.915-6.012a23.609,23.609,0,0,1-3.806,22.158,23.6,23.6,0,1,1-37.086,0,23.6,23.6,0,0,1,0-29.179Z" transform="translate(-669.991 -202.87)" fill="#57b894"/>
    <path id="Path_1496" data-name="Path 1496" d="M1019.04,370.033a23.494,23.494,0,0,1-5.051,14.589,23.6,23.6,0,1,1-37.087,0C973.725,380.608,1019.04,367.386,1019.04,370.033Z" transform="translate(-670.018 -317.297)" opacity="0.1"/>
    <rect id="Rectangle_1119" data-name="Rectangle 1119" width="262.12" height="143.317" rx="20.42" transform="translate(53.901 2.159)" fill="#f2f2f2"/>
    <path id="Path_1497" data-name="Path 1497" d="M172,29.5h84.23V165.9H178.418A6.418,6.418,0,0,1,172,159.485Z" transform="translate(-117.942 -20.269)" fill="#d42917"/>
    <path id="Path_1498" data-name="Path 1498" d="M445.12,216.295v3.643H183v-3.643a6.415,6.415,0,0,1,6.418-6.415H438.7A6.415,6.415,0,0,1,445.12,216.295Z" transform="translate(-129.099 -207.718)" fill="#3f3d56"/>
    <circle id="Ellipse_222" data-name="Ellipse 222" cx="1.886" cy="1.886" r="1.886" transform="translate(58.773 5.459)" fill="#d42917"/>
    <circle id="Ellipse_223" data-name="Ellipse 223" cx="1.886" cy="1.886" r="1.886" transform="translate(63.487 5.459)" fill="#d42917"/>
    <circle id="Ellipse_224" data-name="Ellipse 224" cx="1.886" cy="1.886" r="1.886" transform="translate(68.201 5.459)" fill="#d42917"/>
    <path id="Path_1499" data-name="Path 1499" d="M347.5,429.38" transform="translate(-241.898 -358.23)" fill="none" stroke="#f2f2f2" stroke-miterlimit="10" stroke-width="2"/>
    <path id="Path_1500" data-name="Path 1500" d="M333.5,428.38" transform="translate(-232.298 -357.545)" fill="none" stroke="#f2f2f2" stroke-miterlimit="10" stroke-width="2"/>
    <rect id="Rectangle_1120" data-name="Rectangle 1120" width="109.06" height="3.457" rx="1.24" transform="translate(191.876 29.226)" fill="#d42917" opacity="0.3"/>
    <rect id="Rectangle_1121" data-name="Rectangle 1121" width="22.943" height="7.857" rx="1.24" transform="translate(276.42 35.826)" fill="#d42917"/>
    <rect id="Rectangle_1122" data-name="Rectangle 1122" width="109.06" height="3.457" rx="1.24" transform="translate(191.876 71.266)" fill="#d42917" opacity="0.3"/>
    <rect id="Rectangle_1123" data-name="Rectangle 1123" width="22.943" height="7.857" rx="1.24" transform="translate(276.42 77.866)" fill="#d42917"/>
    <rect id="Rectangle_1124" data-name="Rectangle 1124" width="109.06" height="3.457" rx="1.24" transform="translate(191.876 114.01)" fill="#d42917" opacity="0.3"/>
    <rect id="Rectangle_1125" data-name="Rectangle 1125" width="22.943" height="7.857" rx="1.24" transform="translate(276.42 120.61)" fill="#d42917"/>
    <circle id="Ellipse_225" data-name="Ellipse 225" cx="15.564" cy="15.564" r="15.564" transform="translate(152.642 62.931)" fill="#3f3d56"/>
    <path id="Path_1501" data-name="Path 1501" d="M547.67,443.652a.434.434,0,0,1-.066.1,9.721,9.721,0,0,1-.55.814,15.507,15.507,0,0,1-6.836,5.327c-.27.113-.547.217-.827.314a5.516,5.516,0,0,1-.717-.688,5.378,5.378,0,0,1-1.257-2.605,6.594,6.594,0,0,1-1.257.119.832.832,0,0,1-.126,0c-3.237-.057-6.016-2.426-7.257-5.808l-.05-.145a11.751,11.751,0,0,1-.245-6.833h0c.016-.075.041-.151.063-.223,1.062-3.649,3.866-6.308,7.2-6.518h.72c4.224.154,7.625,4.24,7.782,9.35a5.428,5.428,0,0,1,2.392,5.318,5.555,5.555,0,0,1,1.031,1.474Z" transform="translate(-365.729 -356.948)" fill="#192534"/>
    <path id="Path_1502" data-name="Path 1502" d="M547.81,443.687a9.737,9.737,0,0,1-.55.814,5.136,5.136,0,0,0-.839-1.116,5.911,5.911,0,0,0,.057-.783,5.425,5.425,0,0,0-2.448-4.535c-.173-5.217-3.721-9.385-8.068-9.385-3.105,0-5.8,2.118-7.153,5.23-.034.082-.066.16-.1.245h0c-.113.27-.214.544-.314.83a11.52,11.52,0,0,1,.462-1.691l.044-.044c1.21-3.335,3.913-5.7,7.087-5.843h.72c4.164.251,7.5,4.318,7.659,9.375a5.418,5.418,0,0,1,2.4,5.318A5.361,5.361,0,0,1,547.81,443.687Z" transform="translate(-365.935 -356.879)" opacity="0.1"/>
    <path id="Path_1503" data-name="Path 1503" d="M536.617,460.417a2.042,2.042,0,0,1-.107.943c-.185.431-.629.817-.506,1.257a.965.965,0,0,0,.679.547c1.355.459,2.829.185,4.262.248a13.757,13.757,0,0,0,1.436.05,2.288,2.288,0,0,0,1.333-.465,11.41,11.41,0,0,1-2.1-1.317,2.357,2.357,0,0,1-.424-.405,2.486,2.486,0,0,1-.368-1.439v-1.5c-1.025,0-2.046-.016-3.071-.016-.314,0-1.329-.079-1.446.277-.057.176.164.695.2.893A8.866,8.866,0,0,1,536.617,460.417Z" transform="translate(-371.142 -378.072)" fill="#a0616a"/>
    <path id="Path_1504" data-name="Path 1504" d="M536.617,460.417a2.042,2.042,0,0,1-.107.943c-.185.431-.629.817-.506,1.257a.965.965,0,0,0,.679.547c1.355.459,2.829.185,4.262.248a13.757,13.757,0,0,0,1.436.05,2.288,2.288,0,0,0,1.333-.465,11.41,11.41,0,0,1-2.1-1.317,2.357,2.357,0,0,1-.424-.405,2.486,2.486,0,0,1-.368-1.439v-1.5c-1.025,0-2.046-.016-3.071-.016-.314,0-1.329-.079-1.446.277-.057.176.164.695.2.893A8.866,8.866,0,0,1,536.617,460.417Z" transform="translate(-371.142 -378.072)" opacity="0.1"/>
    <circle id="Ellipse_226" data-name="Ellipse 226" cx="3.611" cy="3.611" r="3.611" transform="translate(163.97 74.67)" fill="#a0616a"/>
    <path id="Path_1505" data-name="Path 1505" d="M533.672,473.579a2.4,2.4,0,0,1-.035.314,9.567,9.567,0,0,1-.512,1.713,8.233,8.233,0,0,1-.478,1.094c-.135.242-.314.465-.459.7l-.207.336a4.586,4.586,0,0,0-.336.71,13.337,13.337,0,0,1-1.845.336,15.418,15.418,0,0,1-1.832.11,16.957,16.957,0,0,1-9.338-2.593s.368-.255.314-.314c0-.145-.016-.286-.016-.431a3.233,3.233,0,0,1,.179-1.094,2.2,2.2,0,0,1,.544-.893c.314-.314.735-.509,1.072-.811a3.181,3.181,0,0,0,.877-1.524h0c.079-.251.135-.519.189-.776a3.774,3.774,0,0,1,.289-1.021.9.9,0,0,1,.069-.119,1.224,1.224,0,0,1,.17-.223,3.676,3.676,0,0,1,1.106-.742c.343-.176.823-.314,1.062-.022v.022a4.42,4.42,0,0,1,.2.553c.192.4.726.446,1.16.437a36.763,36.763,0,0,0,4.582-.383l.735-.119c.531-.088.9.377,1.2.83A6.344,6.344,0,0,1,533.672,473.579Z" transform="translate(-359.243 -384.822)" fill="#d42917"/>
    <path id="Path_1506" data-name="Path 1506" d="M529.056,486.18c-.336.075-.531.415-.688.723a2.794,2.794,0,0,0-.374,1.678,2.365,2.365,0,0,0,.072.682.9.9,0,0,0,.4.541" transform="translate(-365.655 -397.178)" fill="none" stroke="#000" stroke-miterlimit="10" stroke-width="1" opacity="0.1"/>
    <ellipse id="Ellipse_227" data-name="Ellipse 227" cx="1.993" cy="4.039" rx="1.993" ry="4.039" transform="translate(164.099 76.618) rotate(-75.66)" fill="#192534"/>
    <path id="Path_1507" data-name="Path 1507" d="M538.687,441.955c-1.92-.49-3.341-1.571-3.457-2.565a1.007,1.007,0,0,0-.189.38c-.273,1.065,1.257,2.376,3.416,2.929s4.133.135,4.4-.943a1.019,1.019,0,0,0,.025-.365C542.307,442.184,540.569,442.435,538.687,441.955Z" transform="translate(-370.474 -365.094)" opacity="0.1"/>
    <path id="Path_1508" data-name="Path 1508" d="M557.557,482.47c0,.547,0,1.091-.035,1.631-.27.113-.547.217-.827.314a11.527,11.527,0,0,1-1.257.358,13.34,13.34,0,0,1-1.845.336,21.583,21.583,0,0,1-.236-3.875h0a6.242,6.242,0,0,1,1.012-2.829,2.417,2.417,0,0,1,.915-.883,1.125,1.125,0,0,1,1.2.094,1.723,1.723,0,0,1,.434.8,13.3,13.3,0,0,1,.509,1.807,1.665,1.665,0,0,0,.031.207A12.453,12.453,0,0,1,557.557,482.47Z" transform="translate(-383.033 -391.152)" fill="#a0616a"/>
    <path id="Path_1509" data-name="Path 1509" d="M528.367,554.787a15.5,15.5,0,0,1-1.886,7.452c-.138.251-.283.506-.446.757a.436.436,0,0,1-.066.1,9.767,9.767,0,0,1-.55.814,15.382,15.382,0,0,1-4.447,4.124l-.091.063a16.066,16.066,0,0,1-1.776.921c-.17.076-.346.148-.522.22s-.339.138-.516.195c-.088.038-.182.069-.273.1h0a.123.123,0,0,0-.031,0c-.192.069-.39.129-.585.189l-.148.035c-.176.053-.352.1-.528.135a13.29,13.29,0,0,1-1.848.336h0a15.15,15.15,0,0,1-1.82.11h-.189a14.169,14.169,0,0,1-2.514-.233l-.151-.025c-.154-.025-.314-.057-.462-.094h0l-.292-.066a9.192,9.192,0,0,1-.918-.251,14.887,14.887,0,0,1-1.8-.669l-.066-.028a15.37,15.37,0,0,1-2.448-1.392,1.682,1.682,0,0,1-.189-.129A15.561,15.561,0,1,1,528.4,554.784Z" transform="translate(-344.6 -433.549)" fill="#3f3d56"/>
    <path id="Path_1510" data-name="Path 1510" d="M544.27,569.277a3.3,3.3,0,0,1-6.6,0v-.157a3.3,3.3,0,0,1,6.6,0C544.267,569.17,544.27,569.224,544.27,569.277Z" transform="translate(-372.299 -451.788)" fill="#192534"/>
    <path id="Path_1511" data-name="Path 1511" d="M544.27,573.907a3.3,3.3,0,0,1-6.6,0v-.157a5.211,5.211,0,0,1,6.6,0C544.267,573.8,544.27,573.853,544.27,573.907Z" transform="translate(-372.299 -456.418)" opacity="0.1"/>
    <circle id="Ellipse_228" data-name="Ellipse 228" cx="5.214" cy="5.214" r="5.214" transform="translate(163.454 116.446)" fill="#192534"/>
    <path id="Path_1512" data-name="Path 1512" d="M536.19,567.3a3.3,3.3,0,0,1,2.866-3.272,3.3,3.3,0,1,0,0,6.547A3.3,3.3,0,0,1,536.19,567.3Z" transform="translate(-370.68 -450.537)" fill="#192534"/>
    <path id="Path_1513" data-name="Path 1513" d="M525.622,587.415a3.3,3.3,0,0,1-.556-4.315,3.637,3.637,0,0,0-.314.314,3.3,3.3,0,1,0,4.953,4.369,3.493,3.493,0,0,0,.267-.346A3.3,3.3,0,0,1,525.622,587.415Z" transform="translate(-362.838 -463.637)" fill="#192534"/>
    <path id="Path_1514" data-name="Path 1514" d="M536.975,606.827a2.9,2.9,0,0,0-.779.273,1.352,1.352,0,0,0-.289,1.455,4.014,4.014,0,0,0,2.125,2.769,5.252,5.252,0,0,0,2.143.314,2.681,2.681,0,0,0,2.172-.729,2.882,2.882,0,0,0,.443-1.088,8.635,8.635,0,0,0,.4-2.891,1.932,1.932,0,0,1-1.389-.233c-.377-.3-.462-.877-.629-1.355a.356.356,0,0,0-.123-.195.4.4,0,0,0-.22-.031,8.891,8.891,0,0,1-1.5-.063c-.314-.041-1.075-.365-1.307-.091-.17.2-.063.8-.195,1.081A1.5,1.5,0,0,1,536.975,606.827Z" transform="translate(-371.035 -478.554)" fill="#ffc1c7"/>
    <path id="Path_1515" data-name="Path 1515" d="M536.975,606.827a2.9,2.9,0,0,0-.779.273,1.352,1.352,0,0,0-.289,1.455,4.014,4.014,0,0,0,2.125,2.769,5.252,5.252,0,0,0,2.143.314,2.681,2.681,0,0,0,2.172-.729,2.882,2.882,0,0,0,.443-1.088,8.635,8.635,0,0,0,.4-2.891,1.932,1.932,0,0,1-1.389-.233c-.377-.3-.462-.877-.629-1.355a.356.356,0,0,0-.123-.195.4.4,0,0,0-.22-.031,8.891,8.891,0,0,1-1.5-.063c-.314-.041-1.075-.365-1.307-.091-.17.2-.063.8-.195,1.081A1.5,1.5,0,0,1,536.975,606.827Z" transform="translate(-371.035 -478.554)" opacity="0.05"/>
    <circle id="Ellipse_229" data-name="Ellipse 229" cx="3.646" cy="3.646" r="3.646" transform="translate(164.95 120.531)" fill="#ffc1c7"/>
    <path id="Path_1516" data-name="Path 1516" d="M540.22,614.037c-.025.031-.05.069-.079.1l-.154.2a11.825,11.825,0,0,0-1.864,3.1c-.17.075-.346.148-.522.22s-.339.138-.515.195c-.088.038-.182.069-.273.1h0a.118.118,0,0,0-.031,0c-.192.069-.39.129-.585.189l-.148.035c-.176.053-.352.1-.528.135a13.3,13.3,0,0,1-1.848.336h0a15.175,15.175,0,0,1-1.82.11h-.189a14.169,14.169,0,0,1-2.514-.233L529,618.5c-.154-.025-.314-.057-.462-.094h0l-.292-.066a9.2,9.2,0,0,1-.918-.251A2.766,2.766,0,0,1,528,616.67c-.707-.845-1.87-1.179-2.621-1.977a2.533,2.533,0,0,1-.182-.239,1.008,1.008,0,0,1-.1-.192.54.54,0,0,1-.041-.167,1.456,1.456,0,0,1-.028-.352,2.986,2.986,0,0,1,.713-2.47,3.251,3.251,0,0,1,1.125-.5,13.81,13.81,0,0,0,2.043-.823,1.627,1.627,0,0,1,.119.44c.063.365.057.748.141,1.109a2.678,2.678,0,0,0,1.119,1.571,4.274,4.274,0,0,0,1.842.669,3.537,3.537,0,0,0,1.773-.471,2.057,2.057,0,0,0,.732-.415,1.688,1.688,0,0,0,.412-1.147c0-.415-.047-.83-.022-1.257a.6.6,0,0,1,.016-.129.525.525,0,0,1,.358-.493.669.669,0,0,1,.343.063l1.175.449a8.152,8.152,0,0,1,1.465.676A4.064,4.064,0,0,1,540.22,614.037Z" transform="translate(-363.631 -481.961)" fill="#d42917"/>
    <path id="Path_1517" data-name="Path 1517" d="M529.434,625.894l-.151-.025c-.154-.025-.314-.057-.462-.094h0l-.292-.066a9.214,9.214,0,0,1-.918-.251,14.884,14.884,0,0,1-1.8-.669,7.781,7.781,0,0,1-.314-2.961,5.457,5.457,0,0,1,.264-1.257c.66.629,1.785.273,2.533.776a1.571,1.571,0,0,1,.484.553,4.176,4.176,0,0,1,.421,1.285c.047.245.091.493.129.742v.236c.025.176.047.358.057.537A9.527,9.527,0,0,1,529.434,625.894Z" transform="translate(-363.931 -489.331)" opacity="0.1"/>
    <path id="Path_1518" data-name="Path 1518" d="M528.951,625.252c-.154-.025-.314-.057-.462-.094h0l-.292-.066a9.214,9.214,0,0,1-.918-.251,14.88,14.88,0,0,1-1.8-.669l-.066-.028a8.014,8.014,0,0,1-.4-3.291,5.875,5.875,0,0,1,.258-1.182c.66.629,1.785.28,2.533.783a1.766,1.766,0,0,1,.629.83,5.506,5.506,0,0,1,.273,1c.069.368.135.735.179,1.11a.892.892,0,0,1,.016.157v.248A10.731,10.731,0,0,1,528.951,625.252Z" transform="translate(-363.599 -488.714)" fill="#d42917"/>
    <path id="Path_1519" data-name="Path 1519" d="M563.94,623.889a16.039,16.039,0,0,1-1.776.921c-.17.075-.346.148-.522.22s-.339.138-.516.195c-.088.038-.182.069-.273.1h0a.118.118,0,0,0-.031,0c-.192.069-.39.129-.585.189l-.148.035a7.757,7.757,0,0,1,.031-.852c.022-.223.047-.446.079-.669a.329.329,0,0,1,.016-.123.339.339,0,0,0,0-.079c.038-.214.078-.431.119-.644a3.937,3.937,0,0,1,.421-1.285,1.572,1.572,0,0,1,.487-.541c.748-.5,1.886-.16,2.514-.776a5.552,5.552,0,0,1,.255,1.125A7.329,7.329,0,0,1,563.94,623.889Z" transform="translate(-387.672 -489.338)" opacity="0.1"/>
    <path id="Path_1520" data-name="Path 1520" d="M564.354,623.182l-.091.063a16.061,16.061,0,0,1-1.776.921c-.17.075-.346.148-.522.22s-.339.138-.515.195c-.088.038-.182.069-.273.1h0a.117.117,0,0,0-.031,0c-.192.069-.39.129-.585.189,0-.371,0-.739.031-1.106a1.1,1.1,0,0,1,.025-.286v-.226c.047-.339.1-.669.173-1a5.5,5.5,0,0,1,.273-1,1.766,1.766,0,0,1,.629-.83c.748-.5,1.886-.16,2.514-.783a5.378,5.378,0,0,1,.264,1.219A7.361,7.361,0,0,1,564.354,623.182Z" transform="translate(-387.995 -488.693)" fill="#d42917"/>
    <ellipse id="Ellipse_230" data-name="Ellipse 230" cx="4.375" cy="2.917" rx="4.375" ry="2.917" transform="translate(164.149 117.832)" fill="#192534"/>
    <path id="Path_1521" data-name="Path 1521" d="M535.484,631.72v.415a.091.091,0,0,0,0,.025h0l-.292-.066a.961.961,0,0,1,0-.167,2.03,2.03,0,0,1,.7-1.537.464.464,0,0,1,.1-.079,1.856,1.856,0,0,1,.566-.314,1.69,1.69,0,0,1,.591-.113.355.355,0,0,1,.082,0,1.2,1.2,0,0,1,.151,0h-.1a2,2,0,0,0-1.257.629.667.667,0,0,0-.1.113A2.012,2.012,0,0,0,535.484,631.72Z" transform="translate(-370.597 -495.716)" opacity="0.05"/>
    <path id="Path_1522" data-name="Path 1522" d="M539.336,631.935a2.548,2.548,0,0,1-.069.585,14.168,14.168,0,0,1-2.514-.232l-.151-.025c-.154-.025-.314-.057-.462-.094h0v-.44a2.272,2.272,0,0,1,.415-1.172.707.707,0,0,1,.1-.119,1.445,1.445,0,0,1,.55-.421,1.225,1.225,0,0,1,.528-.12.214.214,0,0,1,.063,0,.891.891,0,0,1,.129,0A1.963,1.963,0,0,1,539.336,631.935Z" transform="translate(-371.25 -495.723)" fill="#d42917"/>
    <path id="Path_1523" data-name="Path 1523" d="M558.686,631.645c-.088.038-.182.069-.273.1h0a1.986,1.986,0,0,0-.559-1.194l-.094-.094a2.065,2.065,0,0,0-1.125-.512h-.1a1.142,1.142,0,0,1,.145,0,.4.4,0,0,1,.085,0,1.845,1.845,0,0,1,.594.113,2.025,2.025,0,0,1,.431.207.366.366,0,0,1,.094.069,2,2,0,0,1,.808,1.311Z" transform="translate(-385.231 -495.758)" opacity="0.05"/>
    <path id="Path_1524" data-name="Path 1524" d="M555.567,631.725h0a.117.117,0,0,0-.031,0c-.192.069-.39.129-.585.189l-.148.035c-.176.053-.352.1-.528.135a13.3,13.3,0,0,1-1.848.336h0a2.4,2.4,0,0,1-.047-.481,1.939,1.939,0,0,1,1.417-2.024.8.8,0,0,1,.126,0,.2.2,0,0,1,.06,0,1.232,1.232,0,0,1,.534.119,1.429,1.429,0,0,1,.421.286.605.605,0,0,1,.094.088A2.257,2.257,0,0,1,555.567,631.725Z" transform="translate(-382.385 -495.737)" fill="#d42917"/>
    <path id="Path_1525" data-name="Path 1525" d="M538.162,589.509c-2.345,0-4.259-1.226-4.372-2.769v.145c0,1.612,1.961,2.917,4.378,2.917s4.375-1.3,4.375-2.917v-.145C542.417,588.283,540.5,589.509,538.162,589.509Z" transform="translate(-369.638 -466.133)" opacity="0.1"/>
    <path id="Path_1526" data-name="Path 1526" d="M497.17,285.018a15.526,15.526,0,0,0,1.886,7.449c.141.255.286.509.446.757a.455.455,0,0,0,.069.1,9.243,9.243,0,0,0,.563.8,14.918,14.918,0,0,0,2.244,2.48,5.929,5.929,0,0,0,.49.421,13.967,13.967,0,0,0,1.71,1.223l.094.063a16.9,16.9,0,0,0,1.773.924l.525.217c.173.072.336.141.515.2.088.035.179.066.273.1h.044q.286.1.585.189l.145.035c.176.053.355.1.531.135.239.063.475.116.72.16.368.072.748.135,1.125.179h0a15.136,15.136,0,0,0,1.82.107h.185a14.475,14.475,0,0,0,2.514-.236,1.167,1.167,0,0,0,.151-.025c.154-.025.314-.057.462-.094h0c.1-.019.192-.041.292-.066a8.9,8.9,0,0,0,.918-.248c.185-.06.368-.116.55-.179.368-.129.735-.267,1.087-.424a1.209,1.209,0,0,0,.16-.066l.069-.031a14.335,14.335,0,0,0,1.358-.7c.374-.214.739-.446,1.091-.691h.022a1.273,1.273,0,0,0,.163-.113,15.561,15.561,0,1,0-24.581-12.666Z" transform="translate(-344.527 -248.56)" fill="#3f3d56"/>
    <path id="Path_1527" data-name="Path 1527" d="M545.883,334.68a1.446,1.446,0,0,1,.456.77,1.971,1.971,0,0,1-1.336-.314,17.04,17.04,0,0,0-4.108-1.323.629.629,0,0,1-.314-.119.534.534,0,0,1,.019-.66c.157-.163.453-.141.666-.151a6.069,6.069,0,0,1,4.617,1.785Z" transform="translate(-374.223 -292.056)" fill="#d42917"/>
    <path id="Path_1528" data-name="Path 1528" d="M537.585,331.475a1.886,1.886,0,0,1-1.04,1.047c-.255.091-.528.107-.786.179a.871.871,0,0,0-.61.481,1.03,1.03,0,0,0-.047.339,7.312,7.312,0,0,0,.361,3.206,7.022,7.022,0,0,0,1.738,2.184,7.369,7.369,0,0,0,2.675,1.864,2.006,2.006,0,0,0,1.836-.173,2.724,2.724,0,0,0,.512-.594,5.419,5.419,0,0,0,1.015-5.022.283.283,0,0,0-.075-.189.3.3,0,0,0-.22-.038,1.3,1.3,0,0,1-1.311-.754,1.966,1.966,0,0,1-.072-.691l.022-1.345a1.142,1.142,0,0,0-.05-.427,1.075,1.075,0,0,0-.563-.487,13.9,13.9,0,0,0-2.288-.9c-.346-.1-.61-.27-.764.1S537.764,331.085,537.585,331.475Z" transform="translate(-370.522 -290.102)" fill="#fbbebe"/>
    <path id="Path_1529" data-name="Path 1529" d="M537.585,331.475a1.886,1.886,0,0,1-1.04,1.047c-.255.091-.528.107-.786.179a.871.871,0,0,0-.61.481,1.03,1.03,0,0,0-.047.339,7.312,7.312,0,0,0,.361,3.206,7.022,7.022,0,0,0,1.738,2.184,7.369,7.369,0,0,0,2.675,1.864,2.006,2.006,0,0,0,1.836-.173,2.724,2.724,0,0,0,.512-.594,5.419,5.419,0,0,0,1.015-5.022.283.283,0,0,0-.075-.189.3.3,0,0,0-.22-.038,1.3,1.3,0,0,1-1.311-.754,1.966,1.966,0,0,1-.072-.691l.022-1.345a1.142,1.142,0,0,0-.05-.427,1.075,1.075,0,0,0-.563-.487,13.9,13.9,0,0,0-2.288-.9c-.346-.1-.61-.27-.764.1S537.764,331.085,537.585,331.475Z" transform="translate(-370.522 -290.102)" opacity="0.1"/>
    <circle id="Ellipse_231" data-name="Ellipse 231" cx="4.105" cy="4.105" r="4.105" transform="translate(166.597 34.255)" fill="#fbbebe"/>
    <path id="Path_1530" data-name="Path 1530" d="M536.922,351.275c.368.072.748.135,1.125.179h0a15.135,15.135,0,0,0,1.82.107h.185a14.485,14.485,0,0,0,2.514-.236,1.164,1.164,0,0,0,.151-.025c.154-.025.314-.057.462-.094h0c.1-.019.192-.041.292-.066a8.9,8.9,0,0,0,.918-.248c.185-.06.368-.116.55-.179.368-.129.735-.267,1.087-.424a7.693,7.693,0,0,1-.223-.852,9.4,9.4,0,0,1-.119-1.861c0-.5.022-1,0-1.493a3.676,3.676,0,0,0-.173-1.188,1.518,1.518,0,0,0-.767-.889,2.114,2.114,0,0,0-1.634-.082,1.12,1.12,0,0,0-.151.1.783.783,0,0,0-.226.314c-.151.377-.314.757-.459,1.135a3.59,3.59,0,0,1-.368.748,1.854,1.854,0,0,1-2.033.669,1.2,1.2,0,0,1-.135-.053c-.629-.255-1.2-.8-1.861-.657a1.238,1.238,0,0,0-.82.71.314.314,0,0,0-.022.057,3.19,3.19,0,0,0-.226,1.031A13.747,13.747,0,0,0,536.922,351.275Z" transform="translate(-371.673 -299.542)" fill="#f2f2f2"/>
    <path id="Path_1531" data-name="Path 1531" d="M513.74,339.931a5.925,5.925,0,0,0,.49.421,13.969,13.969,0,0,0,1.71,1.223l.094.063a16.9,16.9,0,0,0,1.773.924l.525.217c.173.072.336.141.515.2.088.035.179.066.273.1h.044q.286.1.585.189l.145.035c.176.053.355.1.531.135.239.063.475.116.72.16.368.072.748.135,1.125.179h0a15.135,15.135,0,0,0,1.82.107h.185a14.483,14.483,0,0,0,2.514-.236,1.164,1.164,0,0,0,.151-.025c.154-.025.314-.057.462-.094h0c.1-.019.192-.041.292-.066a8.907,8.907,0,0,0,.918-.248c.185-.06.368-.116.55-.179.368-.129.735-.267,1.087-.424a1.222,1.222,0,0,0,.16-.066l.069-.031a14.328,14.328,0,0,0,1.358-.7,23.524,23.524,0,0,0,.786-2.514.322.322,0,0,1,0-.05c-.49-.871-.924-1.776-1.411-2.646a2.021,2.021,0,0,0-1.619-1.219,3.961,3.961,0,0,0-1.053-.195,3.966,3.966,0,0,1-.6-.1c-.409-.091-.861-.179-1.012,0h0a.053.053,0,0,0-.022.041.862.862,0,0,0,.072.629c.069.2.16.405.207.575a.863.863,0,0,1,.047.251,8.579,8.579,0,0,1-.038,1.1c-.088.534-.383,1.006-.522,1.524-.063.245-.094.5-.135.748a8.05,8.05,0,0,1-.437,1.641,1.122,1.122,0,0,1-.16.314c-.258.314-.685.195-1.091.135-.3-.251-.28-.7-.314-1.075a5.659,5.659,0,0,0-.572-1.817l-.107-.226c-.314-.651-.629-1.3-.924-1.952a3.443,3.443,0,0,1-.459-2.577c.091-.251.239-.475.339-.717a.779.779,0,0,0,.041-.11,1.048,1.048,0,0,0,.047-.286.628.628,0,0,0-.145-.487.251.251,0,0,0-.063-.066.1.1,0,0,0-.038-.025.748.748,0,0,0-.685-.031,2.867,2.867,0,0,0-.361.16,17.284,17.284,0,0,0-1.782,1.153.892.892,0,0,0-.371.431,3.236,3.236,0,0,1-.06.355c-.088.223-.355.289-.585.339a7.156,7.156,0,0,0-4.564,3.353,3.686,3.686,0,0,0-.39.864A3.591,3.591,0,0,0,513.74,339.931Z" transform="translate(-355.89 -291.87)" fill="#d42917"/>
    <path id="Path_1532" data-name="Path 1532" d="M542.2,308.841a2.982,2.982,0,0,1-2.241.578l.025-.314-1.116.4a2.958,2.958,0,0,0,.732-.786.5.5,0,0,0-.544-.035,1.132,1.132,0,0,0-.406.4,3.665,3.665,0,0,0-.405,3.262.723.723,0,0,1-.72-.047,1.257,1.257,0,0,1-.462-.585.611.611,0,0,0-.292-.374.314.314,0,0,0-.352.157.667.667,0,0,0-.075.4c.022.314.258.629.314.943s.522.566.277.776a3.588,3.588,0,0,1-.893.211.387.387,0,0,1-.258-.255,10.873,10.873,0,0,1-.314-1.766,4.339,4.339,0,0,0-.647-1.285,1.8,1.8,0,0,0-.245-.33.826.826,0,0,1-.239-.273c-.041-.113.038-.28.157-.258a4.908,4.908,0,0,0-.629-.515c.22-.277.434-.559.629-.842.072-.1.148-.223.094-.333a.337.337,0,0,0-.126-.123l-.556-.377c0-.264.525-.167.607-.415a.339.339,0,0,0,0-.2l-.195-.71.742.336a.5.5,0,0,0,.283.066c.195-.028.289-.258.314-.456a1.3,1.3,0,0,1,.076-.585h1.006a.657.657,0,0,0-.123-.475l2.477-.138a3.456,3.456,0,0,1,1.257.088.987.987,0,0,0,.418.094.25.25,0,0,0,.245-.286,4.5,4.5,0,0,1,1.009.776.97.97,0,0,0,.286.236.314.314,0,0,0,.349-.041c.069-.072.1-.2.2-.207s.113.05.151.1a2.456,2.456,0,0,1,.343.6,2.139,2.139,0,0,0,.518-.138.56.56,0,0,0-.094.629c.082.211.232.39.333.591a2.453,2.453,0,0,1,.2.685c.05.3.05.669-.211.814a.7.7,0,0,1-.723-.163C542.777,308.238,542.667,308.363,542.2,308.841Z" transform="translate(-369.693 -272.798)" fill="#192534"/>
    <path id="Path_1533" data-name="Path 1533" d="M515.3,354.12a13.962,13.962,0,0,0,1.71,1.223l.094.063a16.9,16.9,0,0,0,1.773.924l.525.217c.173.072.336.141.516.2.088.035.179.066.273.1h0c-.11-.314-.182-.629-.28-.943a5.324,5.324,0,0,0-1.348-2.219c-.541-.541-1.4-1.329-2.2-.852a2.515,2.515,0,0,0-.629.607,2.808,2.808,0,0,0-.39.575A.787.787,0,0,0,515.3,354.12Z" transform="translate(-356.959 -305.637)" fill="#d42917"/>
    <path id="Path_1534" data-name="Path 1534" d="M562.85,356.022c.368-.129.735-.267,1.087-.424a1.229,1.229,0,0,0,.16-.066l.069-.031a14.342,14.342,0,0,0,1.358-.7c.374-.214.739-.446,1.091-.691h.022a6.535,6.535,0,0,1,0-1.053.828.828,0,0,0-.022-.352.839.839,0,0,0-.176-.242,1.445,1.445,0,0,1-.129-.148c-.355-.4-.644-.83-1.257-.767a1.886,1.886,0,0,0-1.4,1.179,1.077,1.077,0,0,0-.069.176,12.181,12.181,0,0,0-.409,1.669c-.082.349-.185.685-.261,1.034C562.9,355.733,562.869,355.878,562.85,356.022Z" transform="translate(-389.565 -304.855)" fill="#d42917"/>
    <path id="Path_1535" data-name="Path 1535" d="M337.128,660.43h0l-.138.075Z" transform="translate(-234.691 -516.663)" fill="url(#linear-gradient)"/>
    <path id="Path_1536" data-name="Path 1536" d="M274.642,552.254c-1.213,3.495.2,9.168.861,11.7a35.2,35.2,0,0,1,.861,5.569,11.733,11.733,0,0,0,4.457-.1l-1.062-5.214c.757-3.089,0-11.343,0-11.343a19.834,19.834,0,0,0,1.886-8.052c.148-4.783,1.326-6.33,1.364-6.38h0c2.43,1.257,5.519,14.838,5.519,14.838-.255,3.291.05,8.354,1.062,11.088a13.754,13.754,0,0,1,.761,5.418,1.669,1.669,0,0,0,1.377.264,9.435,9.435,0,0,0,3.181-1.48s-.556-14.772-.962-15.341,0-3.746,0-3.746l-.66-5.167s.1-8.759-.861-10.277a10.478,10.478,0,0,1-1.059-4.224v-.148L289.9,527.9s-14.178-1.062-15.243,0a3.053,3.053,0,0,0-.519,1.6,36.276,36.276,0,0,0,.044,6.044s.424,2.785,1.034,5.62a12.343,12.343,0,0,1,0,5.167A15.447,15.447,0,0,1,274.642,552.254Z" transform="translate(-191.512 -425.462)" fill="#575a89"/>
    <path id="Path_1537" data-name="Path 1537" d="M278.171,663.412c.629.836,4.356.481,4.988.22.387-.157.358-.886.255-1.634-.066-.478-.163-.965-.2-1.32a11.965,11.965,0,0,1,.314-2.759s-.836.886-1.037,0a.968.968,0,0,0-.723-.685,1.886,1.886,0,0,0-1.314.082c-.66.283-1.757.893-1.571,1.716a4.878,4.878,0,0,1-.71,2.829,1.257,1.257,0,0,0,0,1.571Z" transform="translate(-194.167 -514.415)" fill="#cbceda"/>
    <path id="Path_1538" data-name="Path 1538" d="M278.186,673.984c.629.836,4.356.481,4.988.22.387-.157.358-.886.255-1.634a4.28,4.28,0,0,1-2.2.236,6.727,6.727,0,0,0-.8-.025,18.078,18.078,0,0,1-2.417-.047,1.207,1.207,0,0,0,.17,1.251Z" transform="translate(-194.182 -524.987)" opacity="0.1"/>
    <path id="Path_1539" data-name="Path 1539" d="M308.069,575.152c-.255,3.291.05,8.354,1.062,11.088a13.753,13.753,0,0,1,.761,5.418,1.669,1.669,0,0,0,1.377.264c-.314-2.134-1.606-11.337-2.442-18.606a30.451,30.451,0,0,0-5.39-13.977l-.886.974C304.979,561.581,308.069,575.152,308.069,575.152Z" transform="translate(-211.075 -447.345)" opacity="0.1"/>
    <path id="Path_1540" data-name="Path 1540" d="M283.62,427.072l.629,3.039,3.03,5.088,3.734-1.593s5.076-5.318,1.886-6.078a2.756,2.756,0,0,1-1.059-.471,2.2,2.2,0,0,1-.827-1.832,5.607,5.607,0,0,1,.519-2.178L285,421a10.641,10.641,0,0,1,.468,2.646,3.493,3.493,0,0,1-1.153,3.074A1.971,1.971,0,0,1,283.62,427.072Z" transform="translate(-198.095 -352.484)" fill="#fbbebe"/>
    <path id="Path_1541" data-name="Path 1541" d="M288,421a10.643,10.643,0,0,1,.468,2.646,4.174,4.174,0,0,0,.38.4,5.139,5.139,0,0,0,3.552,1.43,5.07,5.07,0,0,0,1.6-.255,5.607,5.607,0,0,1,.519-2.178Z" transform="translate(-201.098 -352.484)" opacity="0.1"/>
    <path id="Path_1542" data-name="Path 1542" d="M285.58,407.064a5.139,5.139,0,1,0,1.5-3.658,5.167,5.167,0,0,0-1.5,3.658Z" transform="translate(-199.439 -339.387)" fill="#fbbebe"/>
    <path id="Path_1543" data-name="Path 1543" d="M283.62,439.545l.629,3.039,3.03,5.088,3.734-1.594s5.076-5.318,1.886-6.078a2.757,2.757,0,0,1-1.059-.471c.575,1.571-1.8,4.878-1.8,4.878-.277.405-.911.151-.911.151-1.534-.233-4.353-4.636-4.812-5.368a1.97,1.97,0,0,1-.695.355Z" transform="translate(-198.095 -364.957)" opacity="0.1"/>
    <path id="Path_1544" data-name="Path 1544" d="M274.31,529.473c.9.2,5.874,1.307,7.76,1.031,2.077-.314,6.113-.506,6.113-.506a11.917,11.917,0,0,0,3.36-.223v-.148l-1.465-1.757s-14.178-1.062-15.243,0A3.056,3.056,0,0,0,274.31,529.473Z" transform="translate(-191.711 -425.442)" opacity="0.1"/>
    <path id="Path_1545" data-name="Path 1545" d="M276.556,444.675s2.671-3.7,1.663-5.142l4.513,1.851s2.716-.33,3.7,3.724a7.078,7.078,0,0,1,.17,2.059,6.119,6.119,0,0,0,.742,3.077c1.116,2.228.861,7.342-1.417,7.857a6.805,6.805,0,0,1-3.09.251s.314,9.265,1.622,10.331-3.357.811-3.357.811-4.035.2-6.113.506-7.9-1.065-7.9-1.065.861-3.9,1.163-6.38,1.015-7.763,1.015-7.763l-5.167-7s-.911-4.227,2.279-6.1a35.941,35.941,0,0,1,4.4-2.335s3.206,5.22,4.878,5.475C275.644,444.829,276.279,445.083,276.556,444.675Z" transform="translate(-184.625 -365.074)" fill="#3f3d56"/>
    <path id="Path_1546" data-name="Path 1546" d="M319.2,460.94a7.589,7.589,0,0,1-.255,2.332c-.3.66-1.417,4.3-1.417,4.3h2.53s-1.367-1.468-1.257-2.178S319.2,460.94,319.2,460.94Z" transform="translate(-221.347 -379.871)" opacity="0.1"/>
    <path id="Path_1547" data-name="Path 1547" d="M297.525,485.57s5.591-1.367,6.113-2.533,1.958-3.771,1.958-3.771l-.591-.8-2.719,2.134s-3.24,2.584-4.761,2.829S297.525,485.57,297.525,485.57Z" transform="translate(-207.166 -391.892)" fill="#fbbebe"/>
    <path id="Path_1548" data-name="Path 1548" d="M297.525,485.57s5.591-1.367,6.113-2.533,1.958-3.771,1.958-3.771l-.591-.8-2.719,2.134s-3.24,2.584-4.761,2.829S297.525,485.57,297.525,485.57Z" transform="translate(-207.166 -391.892)" opacity="0.05"/>
    <path id="Path_1549" data-name="Path 1549" d="M283.62,480.054v3.033h.487a14.182,14.182,0,0,1,6.884,1.782l.914.506.245.138,1.571-3.536-1.468-1.317h-.075a8.756,8.756,0,0,1-2.571-.057,4.165,4.165,0,0,0-3.247-.415c-.905.233-1.681,1.257-2.561.943Z" transform="translate(-198.095 -392.957)" fill="#fbbebe"/>
    <path id="Path_1550" data-name="Path 1550" d="M265.862,455.067l-1.012,1.138v2.772s.861,8.709,3.6,9.671,7.615-.556,7.615-.556,1.257-3.341.669-3.545-5.211-1.424-5.211-1.424.063-5.107-.943-6.625c0,0,.66-4.762-1.619-4.862S265.862,455.067,265.862,455.067Z" transform="translate(-185.224 -373.49)" opacity="0.1"/>
    <path id="Path_1551" data-name="Path 1551" d="M265.375,455.067l-1.015,1.138v2.772s.861,8.709,3.6,9.671,7.606-.556,7.606-.556,1.257-3.341.673-3.545-5.214-1.424-5.214-1.424.066-5.107-.943-6.625c0,0,.657-4.762-1.622-4.862S265.375,455.067,265.375,455.067Z" transform="translate(-184.888 -373.49)" fill="#3f3d56"/>
    <path id="Path_1552" data-name="Path 1552" d="M286.985,409.28a2,2,0,0,1,.116-.984.764.764,0,0,1,.8-.465c.434.1.629.666,1.047.8a.827.827,0,0,0,.918-.475,2.383,2.383,0,0,0,.176-1.1V405.8a2.181,2.181,0,0,1,.3-1.32,2.338,2.338,0,0,1,1.738-.629,1.455,1.455,0,0,1,.99.4,1.289,1.289,0,0,0,1.043.371.905.905,0,0,0,.729-.629.027.027,0,0,1,0-.016,5.164,5.164,0,1,0-7.681,6.855A13.29,13.29,0,0,1,286.985,409.28Z" transform="translate(-199.426 -339.409)" opacity="0.1"/>
    <path id="Path_1553" data-name="Path 1553" d="M288.293,397.592a.911.911,0,0,0,.729-.629c.041-.163.031-.339.079-.5.119-.4.544-.607.827-.908a2.029,2.029,0,0,0,.129-2.329,1.654,1.654,0,0,0-1.619-.968c-.409.072-.764.365-1.179.39a2.464,2.464,0,0,1-1.128-.365,4.252,4.252,0,0,0-2.8-.248,1.606,1.606,0,0,0-.77.39,6.317,6.317,0,0,0-.409.575,3.207,3.207,0,0,1-2.071.855c-.751.135-1.6.434-1.851,1.16a3.057,3.057,0,0,0,.088,1.5.43.43,0,0,1-.019.314c-.116.195-.412.113-.629.16-.424.088-.534.629-.55,1.075-.019.5-.031,1-.041,1.5a1.468,1.468,0,0,0,.475,1.257l1.672,2.008a4.309,4.309,0,0,1,1.38,3.08.717.717,0,0,0,.883-.515,2.276,2.276,0,0,0-.057-1.141,13.9,13.9,0,0,1-.264-1.977,2,2,0,0,1,.116-.984.761.761,0,0,1,.8-.465c.434.1.629.663,1.047.8a.83.83,0,0,0,.918-.475,2.382,2.382,0,0,0,.176-1.1v-1.257a2.132,2.132,0,0,1,.3-1.32,2.35,2.35,0,0,1,1.738-.629,1.487,1.487,0,0,1,.99.4A1.279,1.279,0,0,0,288.293,397.592Z" transform="translate(-193.603 -332.533)" fill="#3f3d56"/>
    <path id="Path_1554" data-name="Path 1554" d="M305.029,460.54l-1.571,6.515S302.194,467.046,305.029,460.54Z" transform="translate(-211.505 -379.597)" opacity="0.1"/>
    <path id="Path_1555" data-name="Path 1555" d="M291.83,457.08a10.38,10.38,0,0,1,1.257,6.914l-.387.028S293.4,462.4,291.83,457.08Z" transform="translate(-203.724 -377.224)" opacity="0.1"/>
    <path id="Path_1556" data-name="Path 1556" d="M281.674,517.906s-2.549-.842-2.734,1.113C278.94,519.019,279.421,517.677,281.674,517.906Z" transform="translate(-194.886 -418.81)" opacity="0.1"/>
    <path id="Path_1557" data-name="Path 1557" d="M310.205,482.53s.506,3.545-.405,4.963a11.066,11.066,0,0,0,4.463.607l.314-5.569Z" transform="translate(-216.047 -394.676)" opacity="0.1"/>
    <path id="Path_1558" data-name="Path 1558" d="M310,486.764l.245.138,1.572-3.536-1.468-1.317h-.079C310.289,482.22,310.7,485.265,310,486.764Z" transform="translate(-216.184 -394.347)" opacity="0.1"/>
    <path id="Path_1559" data-name="Path 1559" d="M310.205,482.05s.506,3.545-.405,4.963a11.135,11.135,0,0,0,4.463.607l1.773-5.569Z" transform="translate(-216.047 -394.347)" fill="#3f3d56"/>
    <path id="Path_1560" data-name="Path 1560" d="M324.981,660.978a1.144,1.144,0,0,0,.984,1,35.742,35.742,0,0,1,5.522,1.128c1.065.506,5.268.151,5.469-.355a.8.8,0,0,0-.072-.607,1.612,1.612,0,0,0-.679-.732,2.043,2.043,0,0,0-.314-.135,6.672,6.672,0,0,1-2.69-1.411,17.1,17.1,0,0,1-2.395-2.514,1.216,1.216,0,0,0-.974-.607c-.443-.019-.943.2-1.138,1.175,0,0-2.43,1.386-3.086.17a6.707,6.707,0,0,1-.506,2.379h0A.682.682,0,0,0,324.981,660.978Z" transform="translate(-226.45 -514.137)" fill="#cbceda"/>
    <path id="Path_1561" data-name="Path 1561" d="M324.986,669.113a1.144,1.144,0,0,0,.984,1,35.748,35.748,0,0,1,5.522,1.128c1.065.506,5.268.151,5.469-.355a.8.8,0,0,0-.072-.607,1.613,1.613,0,0,0-.679-.732c-.685.456-2.2.9-5.55.377a24.59,24.59,0,0,1-5.544-1.317h0A.682.682,0,0,0,324.986,669.113Z" transform="translate(-226.455 -522.272)" opacity="0.1"/>
    <g id="Group_3541" data-name="Group 3541" transform="translate(83.46 61.771)" opacity="0.1">
      <path id="Path_1562" data-name="Path 1562" d="M280.724,404.2v-.022a4.84,4.84,0,0,1-.154-1.15,7.125,7.125,0,0,0,.135.933A.57.57,0,0,1,280.724,404.2Z" transform="translate(-279.464 -401.933)"/>
      <path id="Path_1563" data-name="Path 1563" d="M290.173,406.549a1.535,1.535,0,0,0-.126.581,1.75,1.75,0,0,1,.126-.808.764.764,0,0,1,.8-.465c.434.1.629.666,1.047.8a.827.827,0,0,0,.918-.475,2.376,2.376,0,0,0,.176-1.1c0-.421,0-.845,0-1.257a2.181,2.181,0,0,1,.3-1.32,2.337,2.337,0,0,1,1.738-.629,1.455,1.455,0,0,1,.99.4,1.289,1.289,0,0,0,1.043.371.9.9,0,0,0,.729-.629c.041-.163.031-.339.079-.5.119-.4.544-.607.827-.908a1.634,1.634,0,0,0,.427-1.069,1.716,1.716,0,0,1-.427,1.3c-.283.314-.707.509-.827.905-.047.163-.038.336-.079.5a.905.905,0,0,1-.729.629,1.279,1.279,0,0,1-1.043-.374,1.471,1.471,0,0,0-.99-.4,2.338,2.338,0,0,0-1.738.629,2.129,2.129,0,0,0-.3,1.32c0,.459,0,.845,0,1.257a2.37,2.37,0,0,1-.176,1.1.82.82,0,0,1-.918.475c-.424-.135-.613-.7-1.047-.8A.758.758,0,0,0,290.173,406.549Z" transform="translate(-285.958 -399.54)"/>
      <path id="Path_1564" data-name="Path 1564" d="M277.1,416.683a1.977,1.977,0,0,0,.431.7l1.672,2.008a4.534,4.534,0,0,1,1.392,2.9,4.959,4.959,0,0,0-1.392-2.678l-1.672-2.008a1.468,1.468,0,0,1-.475-1.257A1.28,1.28,0,0,0,277.1,416.683Z" transform="translate(-277.049 -411.067)"/>
      <path id="Path_1565" data-name="Path 1565" d="M289.183,433.583a1.164,1.164,0,0,0,.05-.273,1.4,1.4,0,0,1-.05.5.711.711,0,0,1-.883.512,1.729,1.729,0,0,0,.016-.22.72.72,0,0,0,.867-.519Z" transform="translate(-284.764 -422.696)"/>
    </g>
    <path id="Path_1566" data-name="Path 1566" d="M339.305,660.15s-.528.943-2.445.11" transform="translate(-234.602 -516.471)" opacity="0.1"/>
    <path id="Path_1567" data-name="Path 1567" d="M284.9,660.86a2.913,2.913,0,0,1-3.737.629" transform="translate(-196.408 -516.958)" opacity="0.1"/>
    <path id="Path_1568" data-name="Path 1568" d="M277.74,587.58s1.166.729,1.207,1.147-.6-.314-.6-.314Z" transform="translate(-194.063 -466.709)" opacity="0.1"/>
    <path id="Path_1569" data-name="Path 1569" d="M276.27,605.39a2.432,2.432,0,0,0,1.439.563c.874.038.8,1.176.229.836a14.323,14.323,0,0,1-1.669-1.4Z" transform="translate(-193.055 -478.922)" opacity="0.1"/>
    <path id="Path_1570" data-name="Path 1570" d="M275.56,607.71s.563,2.756,1.018,2.225" transform="translate(-192.568 -480.513)" opacity="0.1"/>
    <path id="Path_1571" data-name="Path 1571" d="M86.012,579.44c.943-1.732-.129-3.853-1.348-5.4s-2.706-3.143-2.675-5.12c.047-2.829,3.049-4.5,5.447-6a26.4,26.4,0,0,0,4.89-3.932,7.227,7.227,0,0,0,1.5-2.011,8.155,8.155,0,0,0,.449-3.574q-.157-6.056-.6-12.1" transform="translate(-59.834 -434.982)" fill="none" stroke="#3f3d56" stroke-miterlimit="10" stroke-width="4"/>
    <path id="Path_1572" data-name="Path 1572" d="M114.517,531.44a4.4,4.4,0,0,0-2.2-3.614l-.987,1.952.028-2.364a4.4,4.4,0,1,0,3.162,4.026Z" transform="translate(-76.11 -425.332)" fill="#57b894"/>
    <path id="Path_1573" data-name="Path 1573" d="M90.539,621.6a4.4,4.4,0,1,1,.214-3.552L88,620.287l3.033-.7A4.4,4.4,0,0,1,90.539,621.6Z" transform="translate(-59.999 -485.635)" fill="#57b894"/>
    <path id="Path_1574" data-name="Path 1574" d="M91.462,589.111a4.4,4.4,0,0,1-1.4-8.652l-.025,1.817,1-1.977h0a4.4,4.4,0,0,1,4.611,4.2A4.35,4.35,0,0,1,95.46,586,4.4,4.4,0,0,1,91.462,589.111Z" transform="translate(-63.101 -461.713)" fill="#57b894"/>
    <path id="Path_1575" data-name="Path 1575" d="M125.851,566.487a4.4,4.4,0,1,1,1.949-8.257l-.779,2.137,1.606-1.54a4.4,4.4,0,0,1,1.424,3.046,4.334,4.334,0,0,1-.11,1.216A4.416,4.416,0,0,1,125.851,566.487Z" transform="translate(-86.781 -446.213)" fill="#57b894"/>
    <path id="Path_1576" data-name="Path 1576" d="M113.967,537.877c-1.018.11-2.008.427-3.03.49a3.3,3.3,0,0,1-2.791-.974,13.964,13.964,0,0,1-.814-1.436,3.143,3.143,0,0,0-1.113-1.047,4.4,4.4,0,1,0,8.247,2.929Q114.219,537.849,113.967,537.877Z" transform="translate(-76.155 -430.593)" opacity="0.1"/>
    <path id="Path_1577" data-name="Path 1577" d="M125.724,571.966a4.4,4.4,0,0,1-4.2-6.286,3.258,3.258,0,0,1,.886.886,14.43,14.43,0,0,0,.874,1.458,3.614,3.614,0,0,0,2.926,1.025c1.065-.047,2.093-.352,3.143-.45.148,0,.3-.022.446-.025A4.416,4.416,0,0,1,125.724,571.966Z" transform="translate(-86.654 -451.692)" opacity="0.1"/>
    <path id="Path_1578" data-name="Path 1578" d="M91.648,594.8a4.4,4.4,0,0,1-4.234-6.21,3.569,3.569,0,0,1,.943.9,14.779,14.779,0,0,0,.959,1.487,4.071,4.071,0,0,0,3.121,1.094c1.125-.028,2.147-.289,3.231-.374a4.4,4.4,0,0,1-4.02,3.108Z" transform="translate(-63.286 -467.402)" opacity="0.1"/>
    <path id="Path_1579" data-name="Path 1579" d="M90.282,627.749a4.406,4.406,0,0,1-8.043-3.6,4.271,4.271,0,0,1,.968.864,19.179,19.179,0,0,0,1.182,1.571,5.494,5.494,0,0,0,3.655,1.286A18.854,18.854,0,0,0,90.282,627.749Z" transform="translate(-59.742 -491.786)" opacity="0.1"/>
    <path id="Path_1580" data-name="Path 1580" d="M73.62,652.178s3.482-.091,4.52-.855,5.343-1.637,5.613-.44,5.233,5.972,1.3,5.99-9.13-.629-10.18-1.257S73.62,652.178,73.62,652.178Z" transform="translate(-54.096 -509.712)" fill="#656380"/>
    <path id="Path_1581" data-name="Path 1581" d="M85.139,660.54c-3.932.034-9.133-.61-10.18-1.257-.8-.487-1.116-2.231-1.223-3.033H73.62s.22,2.807,1.257,3.457,6.251,1.282,10.18,1.257c1.135,0,1.527-.412,1.505-1.009C86.415,660.311,86,660.534,85.139,660.54Z" transform="translate(-54.096 -513.797)" opacity="0.2"/>
  </g>
</svg>
