<svg xmlns="http://www.w3.org/2000/svg" width="36" height="36" viewBox="0 0 36 36">
  <g id="Group_3661" data-name="Group 3661" transform="translate(-21 -301)">
    <circle id="Ellipse_473" data-name="Ellipse 473" cx="18" cy="18" r="18" transform="translate(21 301)" fill="#d42917"/>
    <path id="ic_notifications_active_24px" d="M5.674,3.538,4.735,2.6A6.846,6.846,0,0,0,2.03,7.753H3.343A5.546,5.546,0,0,1,5.674,3.538ZM13.81,7.753h1.313A6.887,6.887,0,0,0,12.418,2.6l-.932.939A5.578,5.578,0,0,1,13.81,7.753Zm-1.294.328a4,4,0,0,0-2.955-4.15V3.485a.985.985,0,0,0-1.97,0v.447a3.989,3.989,0,0,0-2.955,4.15v3.283L3.324,12.678v.657H13.83v-.657l-1.313-1.313ZM8.577,15.3a1.15,1.15,0,0,0,.263-.026,1.332,1.332,0,0,0,.946-.775,1.318,1.318,0,0,0,.1-.512H7.257A1.323,1.323,0,0,0,8.577,15.3Z" transform="translate(29.97 310.5)" fill="#fff"/>
  </g>
</svg>
