<svg xmlns="http://www.w3.org/2000/svg" width="26.34" height="26.34" viewBox="0 0 26.34 26.34">
  <g id="Group_3664" data-name="Group 3664" transform="translate(-222 -731)">
    <circle id="Ellipse_477" data-name="Ellipse 477" cx="13.17" cy="13.17" r="13.17" transform="translate(222 731)" fill="#d42917"/>
    <path id="ic_link_24px" d="M3.212,10.191A1.98,1.98,0,0,1,5.191,8.212H7.743V7H5.191a3.191,3.191,0,1,0,0,6.381H7.743V12.169H5.191A1.98,1.98,0,0,1,3.212,10.191Zm2.616.638h5.105V9.553H5.829ZM11.572,7H9.019V8.212h2.553a1.978,1.978,0,1,1,0,3.956H9.019v1.212h2.553a3.191,3.191,0,1,0,0-6.381Z" transform="translate(221.818 743.41) rotate(-48)" fill="#fff"/>
  </g>
</svg>
