<svg xmlns="http://www.w3.org/2000/svg" width="26.34" height="26.34" viewBox="0 0 26.34 26.34">
  <g id="Group_3556" data-name="Group 3556" transform="translate(-191 -751)">
    <circle id="Ellipse_32" data-name="Ellipse 32" cx="13.17" cy="13.17" r="13.17" transform="translate(191 751)" fill="#5ab8ee"/>
    <g id="_1" data-name=" 1" transform="translate(197.199 757.199)">
      <rect id="Rectangle_548" data-name="Rectangle 548" width="15" height="15" transform="translate(-0.149 -0.149)" fill="none"/>
      <path id="Path_2" data-name="Path 2" d="M41.8,11.729a6.935,6.935,0,0,0,7-7V4.4a5.416,5.416,0,0,0,1.2-1.266,5.532,5.532,0,0,1-1.4.4A2.593,2.593,0,0,0,49.661,2.2a6.112,6.112,0,0,1-1.533.6,2.38,2.38,0,0,0-1.8-.8,2.5,2.5,0,0,0-2.466,2.466A1.3,1.3,0,0,0,43.931,5a6.889,6.889,0,0,1-5.064-2.6,2.552,2.552,0,0,0-.333,1.266A2.647,2.647,0,0,0,39.6,5.732,2.246,2.246,0,0,1,38.466,5.4h0a2.435,2.435,0,0,0,2,2.4,2.054,2.054,0,0,1-.666.067,1.134,1.134,0,0,1-.466-.067A2.524,2.524,0,0,0,41.665,9.53,5.031,5.031,0,0,1,38.6,10.6a1.845,1.845,0,0,1-.6-.067,6.29,6.29,0,0,0,3.8,1.2" transform="translate(-37.191 -0.159)" fill="#fff" fill-rule="evenodd"/>
    </g>
  </g>
</svg>
