<svg xmlns="http://www.w3.org/2000/svg" width="19.068" height="23.47" viewBox="0 0 19.068 23.47">
  <g id="Group_2117" data-name="Group 2117" transform="translate(-220 -771)">
    <path id="Path_10" data-name="Path 10" d="M91.629,183.948a8.506,8.506,0,0,1-1.691,5.116,1.768,1.768,0,0,0-.09,2.144c.558.9,1.121,1.8,1.68,2.707a.636.636,0,0,1-.264,1.041l-6.849,3.806a.642.642,0,0,1-1.037-.3q-.757-1.372-1.514-2.744a.623.623,0,0,0-.94-.323c-.806.342-1.61.688-2.417,1.028a1.859,1.859,0,0,1-2.626-1.292c-.406-1.537-.811-3.075-1.227-4.609a.553.553,0,0,0-.234-.294c-.447-.269-.907-.518-1.362-.775a.666.666,0,0,1-.341-.967c.469-1.145.924-2.3,1.417-3.431a7.612,7.612,0,0,0,.536-2.089,8.179,8.179,0,0,1,4.927-6.745,8.474,8.474,0,0,1,11.735,5.55,21.834,21.834,0,0,1,.365,2.159Zm-3.648,0a4.862,4.862,0,1,0-4.869,4.862A4.894,4.894,0,0,0,87.981,183.946Z" transform="translate(147.372 595.556)" fill="#a7a7a7"/>
    <path id="Path_11" data-name="Path 11" d="M193.346,252.124a4.862,4.862,0,1,1-4.869-4.861A4.9,4.9,0,0,1,193.346,252.124Zm-2.867-1c-.007-.1-.013-.173-.018-.249a1.956,1.956,0,0,0-2.032-1.778,1.975,1.975,0,0,0-1.912,1.964.54.54,0,0,0,.183.383.6.6,0,0,0,.44.057c.193-.051.267-.225.282-.432a1.1,1.1,0,0,1,1.6-.947,1.032,1.032,0,0,1,.55,1.009,1.064,1.064,0,0,1-.7.963,2.014,2.014,0,0,0-.58.337,1.217,1.217,0,0,0-.24,1.139.447.447,0,0,0,.485.322.441.441,0,0,0,.395-.451c-.028-.3.1-.422.37-.543A1.908,1.908,0,0,0,190.48,251.122Zm-1.567,3.464a.429.429,0,1,0-.858.009.429.429,0,0,0,.858-.009Z" transform="translate(42.006 527.379)" fill="#fff"/>
    <path id="Path_12" data-name="Path 12" d="M244.681,285.4a1.908,1.908,0,0,1-1.178,1.774c-.275.121-.4.24-.37.543a.441.441,0,0,1-.395.451.447.447,0,0,1-.485-.322,1.217,1.217,0,0,1,.24-1.139,2.015,2.015,0,0,1,.58-.337,1.064,1.064,0,0,0,.7-.963,1.032,1.032,0,0,0-.55-1.009,1.1,1.1,0,0,0-1.6.947c-.015.207-.09.382-.282.433a.6.6,0,0,1-.44-.057.539.539,0,0,1-.183-.383,1.975,1.975,0,0,1,1.912-1.964,1.956,1.956,0,0,1,2.032,1.778C244.668,285.224,244.673,285.3,244.681,285.4Z" transform="translate(-12.195 493.103)" fill="#a7a7a7"/>
  </g>
</svg>
